*
*
G04 PADS VX.2.3 Build Number: 9191294 generated Gerber (RS-274-X) file*
G04 PC Version=2.1*
*
%IN "SENTIO32 schematic V3-2"*%
*
%MOIN*%
*
%FSLAX35Y35*%
*
*
*
*
G04 PC Standard Apertures*
*
*
G04 Thermal Relief Aperture macro.*
%AMTER*
1,1,$1,0,0*
1,0,$1-$2,0,0*
21,0,$3,$4,0,0,45*
21,0,$3,$4,0,0,135*
%
*
*
G04 Annular Aperture macro.*
%AMANN*
1,1,$1,0,0*
1,0,$2,0,0*
%
*
*
G04 Odd Aperture macro.*
%AMODD*
1,1,$1,0,0*
1,0,$1-0.005,0,0*
%
*
*
G04 PC Custom Aperture Macros*
*
*
*
*
*
*
G04 PC Aperture Table*
*
%ADD010C,0.001*%
%ADD011R,0.01575X0.01575*%
%ADD012C,0.05906*%
%ADD013R,0.04331X0.02362*%
%ADD014O,0.05118X0.09842*%
%ADD015C,0.02165*%
%ADD016C,0.03937*%
%ADD017R,0.02756X0.01575*%
%ADD018R,0.00984X0.02756*%
%ADD019R,0.0315X0.02992*%
%ADD020R,0.06299X0.08661*%
%ADD021R,0.02756X0.0315*%
%ADD022R,0.02992X0.0315*%
%ADD023R,0.02008X0.02008*%
%ADD024R,0.035X0.04*%
%ADD025R,0.04X0.035*%
%ADD026R,0.06X0.055*%
%ADD027C,0.00394*%
%ADD028C,0.01*%
%ADD030C,0.006*%
*
*
*
*
G04 PC Circuitry*
G04 Layer Name SENTIO32 schematic V3-2 - circuitry*
%LPD*%
*
*
G04 PC Custom Flashes*
G04 Layer Name SENTIO32 schematic V3-2 - flashes*
%LPD*%
*
*
G04 PC Circuitry*
G04 Layer Name SENTIO32 schematic V3-2 - circuitry*
%LPD*%
*
G54D10*
G54D11*
G01X103799Y163524D03*
Y158701D03*
Y153878D03*
X106358Y152205D03*
X103799Y150531D03*
X106358Y148858D03*
X103799Y147185D03*
X106358Y145512D03*
X103799Y143839D03*
X106358Y142165D03*
X103799Y140492D03*
X106358Y138819D03*
X103799Y137146D03*
X106358Y135472D03*
X103799Y132894D03*
X108031D03*
X109705Y135472D03*
X111378Y132894D03*
X113051Y135472D03*
X114724Y132894D03*
X116398Y135472D03*
X118071Y132894D03*
X119744Y135472D03*
X121417Y132894D03*
X123091Y135472D03*
X125650Y132894D03*
Y137146D03*
X123091Y138819D03*
X125650Y140492D03*
X123091Y142165D03*
X125650Y143839D03*
X123091Y145512D03*
X125650Y147185D03*
X123091Y148858D03*
X125650Y150531D03*
X123091Y152205D03*
X125650Y153878D03*
Y158701D03*
Y163524D03*
X109705Y152205D03*
Y145512D03*
Y138819D03*
X114724D03*
X119744D03*
Y145512D03*
Y152205D03*
X114724D03*
G54D12*
X117756Y114331D03*
X127756D03*
X137756D03*
X147756D03*
G54D13*
X150394Y168819D03*
Y172559D03*
Y176299D03*
X139370D03*
Y168819D03*
G54D14*
X110236Y189528D03*
X135433D03*
G54D15*
X114961Y180866D03*
X130709D03*
G54D16*
X133976Y122402D03*
X137972Y152402D03*
X141969Y122402D03*
G54D17*
X142953Y156850D03*
Y154291D03*
Y151732D03*
X151220D03*
Y154291D03*
Y156850D03*
G54D18*
X169843Y149961D03*
X167874D03*
X165906D03*
X163937D03*
X161969D03*
Y138937D03*
X163937D03*
X165906D03*
X167874D03*
X169843D03*
X165906Y144449D03*
G54D19*
X170906Y169449D03*
Y175433D03*
G54D20*
X163898Y187992D03*
X152086D03*
G54D21*
X164685Y176457D03*
Y166220D03*
G54D22*
X135157Y168898D03*
X129173D03*
G54D23*
X163268Y132008D03*
Y128780D03*
G54D24*
X162709Y157992D03*
X168709D03*
X141882Y162598D03*
X147882D03*
G54D25*
X169055Y126055D03*
Y132055D03*
X162402Y115622D03*
Y121622D03*
X133976Y155740D03*
Y161740D03*
G54D26*
X157362Y166807D03*
Y175307D03*
X123858Y186775D03*
Y178275D03*
G54D27*
X170630Y137362D02*
X160787D01*
Y151535*
X170630*
Y137362*
X169843Y151929D02*
X170630Y152717D01*
X169055*
X169843Y151929*
X161732Y165229D02*
Y176855D01*
X161733Y176852D02*
G75*
G03X153032Y176859I-4351J-627D01*
G01X153031Y176855D02*
Y165229D01*
Y165233D02*
G03X161732Y165225I4351J627D01*
G01X154362Y171063D02*
X160362D01*
X119488Y188354D02*
Y176727D01*
Y176731D02*
G03X128188Y176723I4351J627D01*
G01X128189Y176727D02*
Y188354D01*
X128190Y188350D02*
G03X119489Y188357I-4351J-627D01*
G01X126858Y182520D02*
X120858D01*
X161378Y141496D02*
X170039D01*
Y146729*
X169367Y147402*
X161378*
Y141496*
Y147402*
X161575Y141496D02*
Y147402D01*
X161772Y141496D02*
Y147402D01*
X161969Y141496D02*
Y147402D01*
X162165Y141496D02*
Y147402D01*
X162362Y141496D02*
Y147402D01*
X162559Y141496D02*
Y147402D01*
X162756Y141496D02*
Y147402D01*
X162953Y141496D02*
Y147402D01*
X163150Y141496D02*
Y147402D01*
X163346Y141496D02*
Y147402D01*
X163543Y141496D02*
Y147402D01*
X163740Y141496D02*
Y147402D01*
X163937Y141496D02*
Y147402D01*
X164134Y141496D02*
Y147402D01*
X164331Y141496D02*
Y147402D01*
X164528Y141496D02*
Y147402D01*
X164724Y141496D02*
Y147402D01*
X164921Y141496D02*
Y147402D01*
X165118Y141496D02*
Y147402D01*
X165315Y141496D02*
Y147402D01*
X165512Y141496D02*
Y147402D01*
X165709Y141496D02*
Y147402D01*
X165906Y141496D02*
Y147402D01*
X166102Y141496D02*
Y147402D01*
X166299Y141496D02*
Y147402D01*
X166496Y141496D02*
Y147402D01*
X166693Y141496D02*
Y147402D01*
X166890Y141496D02*
Y147402D01*
X167087Y141496D02*
Y147402D01*
X167283Y141496D02*
Y147402D01*
X167480Y141496D02*
Y147402D01*
X167677Y141496D02*
Y147402D01*
X167874Y141496D02*
Y147402D01*
X168071Y141496D02*
Y147402D01*
X168268Y141496D02*
Y147402D01*
X168465Y141496D02*
Y147402D01*
X168661Y141496D02*
Y147402D01*
X168858Y141496D02*
Y147402D01*
X169055Y141496D02*
Y147402D01*
X169252Y141496D02*
Y147402D01*
X169449Y141496D02*
Y147320D01*
X169646Y141496D02*
Y147123D01*
X169843Y141496D02*
Y146926D01*
G54D28*
X140632Y166773D02*
X140288Y166648D01*
X139944Y166398*
X139773Y166148*
Y165648*
X139944Y165398*
X140288Y165148*
X140632Y165023*
X141148Y164898*
X142007*
X142523Y165023*
X142866Y165148*
X143210Y165398*
X143382Y165648*
Y166148*
X143210Y166398*
X142866Y166648*
X142523Y166773*
X139773Y169523D02*
Y168273D01*
X141319Y168148*
X141148Y168273*
X140976Y168648*
Y169023*
X141148Y169398*
X141491Y169648*
X142007Y169773*
X142351Y169648*
X142866Y169523*
X143210Y169273*
X143382Y168898*
Y168523*
X143210Y168148*
X143038Y168023*
X142694Y167898*
X100000Y100000D02*
X174803D01*
Y198425*
X100000*
Y100000*
G54D30*
X164469Y160866D02*
X160754D01*
X160756Y160867D02*
G03X160751Y154962I920J-2954D01*
G01X160754Y154961D02*
X164469D01*
X166869Y160866D02*
X170806D01*
X170805Y154960D02*
G03Y160867I-1260J2953D01*
G01X170806Y154961D02*
X166869D01*
X166181Y127816D02*
Y124101D01*
Y124103D02*
G03X172086Y124097I2953J919D01*
G01X172087Y124101D02*
Y127816D01*
X166181Y130216D02*
Y134153D01*
X172087Y134151D02*
G03X166181I-2953J-1259D01*
G01X172087Y134153D02*
Y130216D01*
X159528Y117383D02*
Y113668D01*
X159527Y113669D02*
G03X165432Y113664I2953J920D01*
G01X165433Y113668D02*
Y117383D01*
X159528Y119783D02*
Y123719D01*
X165434Y123718D02*
G03X159527I-2954J-1259D01*
G01X165433Y123719D02*
Y119783D01*
X131102Y157501D02*
Y153786D01*
Y153788D02*
G03X137007Y153782I2953J919D01*
G01X137008Y153786D02*
Y157501D01*
X131102Y159901D02*
Y163838D01*
X137008Y163836D02*
G03X131102I-2953J-1259D01*
G01X137008Y163838D02*
Y159901D01*
X143682Y165551D02*
X138583D01*
Y159646*
X143682*
X142882Y165551D02*
X151181D01*
Y159646*
X142882*
G74*
X0Y0D02*
M02*
