*
*
G04 PADS VX.2.3 Build Number: 9191294 generated Gerber (RS-274-X) file*
G04 PC Version=2.1*
*
%IN "layoutfile-20190621.pcb"*%
*
%MOIN*%
*
%FSLAX35Y35*%
*
*
*
*
G04 PC Standard Apertures*
*
*
G04 Thermal Relief Aperture macro.*
%AMTER*
1,1,$1,0,0*
1,0,$1-$2,0,0*
21,0,$3,$4,0,0,45*
21,0,$3,$4,0,0,135*
%
*
*
G04 Annular Aperture macro.*
%AMANN*
1,1,$1,0,0*
1,0,$2,0,0*
%
*
*
G04 Odd Aperture macro.*
%AMODD*
1,1,$1,0,0*
1,0,$1-0.005,0,0*
%
*
*
G04 PC Custom Aperture Macros*
*
*
*
*
*
*
G04 PC Aperture Table*
*
%ADD010C,0.001*%
%ADD011C,0.05906*%
%ADD013C,0.03937*%
%ADD015R,0.0315X0.02992*%
%ADD017R,0.035X0.04*%
%ADD018R,0.04X0.035*%
%ADD019R,0.06X0.055*%
%ADD024C,0.02165*%
%ADD025C,0.006*%
%ADD030C,0.004*%
%ADD031R,0.01575X0.01575*%
%ADD032R,0.04331X0.02362*%
%ADD033R,0.02756X0.01575*%
%ADD034R,0.00984X0.02756*%
%ADD035R,0.06299X0.08661*%
%ADD036R,0.02756X0.0315*%
%ADD037R,0.055X0.06*%
%ADD038C,0.00394*%
*
*
*
*
G04 PC Circuitry*
G04 Layer Name layoutfile-20190621.pcb - circuitry*
%LPD*%
*
*
G04 PC Custom Flashes*
G04 Layer Name layoutfile-20190621.pcb - flashes*
%LPD*%
*
*
G04 PC Circuitry*
G04 Layer Name layoutfile-20190621.pcb - circuitry*
%LPD*%
*
G54D10*
G54D11*
G01X122441Y104134D03*
X132441D03*
X142441D03*
X152441D03*
G54D13*
X133268Y118465D03*
X137264Y148465D03*
X141260Y118465D03*
G54D15*
X170079Y174961D03*
Y180945D03*
G54D17*
X162748Y156181D03*
X168748D03*
X139496Y154409D03*
X133496D03*
X146504Y161772D03*
X140504D03*
G54D18*
X169055Y126055D03*
Y132055D03*
X162480Y126055D03*
Y132055D03*
X133386Y168157D03*
Y162157D03*
X155827Y132016D03*
Y126016D03*
G54D19*
X157402Y166768D03*
Y175268D03*
G54D24*
X147835Y184016D03*
X163583D03*
G54D25*
X164509Y159488D02*
X160361D01*
Y153150*
X164509*
X166909Y159528D02*
X171102D01*
Y153150*
X166909*
X165748Y127816D02*
Y123668D01*
X172087*
Y127816*
X165709Y130216D02*
Y134409D01*
X172087*
Y130216*
X159173Y127816D02*
Y123668D01*
X165512*
Y127816*
X159134Y130216D02*
Y134409D01*
X165512*
Y130216*
X137696Y151457D02*
X142795D01*
Y157362*
X137696*
X138496Y151457D02*
X130197D01*
Y157362*
X138496*
X136339Y166357D02*
Y171457D01*
X130433*
Y166357*
X136339Y167157D02*
Y158858D01*
X130433*
Y167157*
X144704Y158819D02*
X149803D01*
Y164724*
X144704*
X145504Y158819D02*
X137205D01*
Y164724*
X145504*
X158780Y130216D02*
Y135315D01*
X152874*
Y130216*
X158780Y131016D02*
Y122717D01*
X152874*
Y131016*
G54D30*
X100000Y100000D02*
X174803D01*
Y198425*
X100000*
Y100000*
G54D31*
X104390Y189390D03*
Y184567D03*
Y179744D03*
X106949Y178071D03*
X104390Y176398D03*
X106949Y174724D03*
X104390Y173051D03*
X106949Y171378D03*
X104390Y169705D03*
X106949Y168031D03*
X104390Y166358D03*
X106949Y164685D03*
X104390Y163012D03*
X106949Y161339D03*
X104390Y158760D03*
X108622D03*
X110295Y161339D03*
X111969Y158760D03*
X113642Y161339D03*
X115315Y158760D03*
X116988Y161339D03*
X118661Y158760D03*
X120335Y161339D03*
X122008Y158760D03*
X123681Y161339D03*
X126240Y158760D03*
Y163012D03*
X123681Y164685D03*
X126240Y166358D03*
X123681Y168031D03*
X126240Y169705D03*
X123681Y171378D03*
X126240Y173051D03*
X123681Y174724D03*
X126240Y176398D03*
X123681Y178071D03*
X126240Y179744D03*
Y184567D03*
Y189390D03*
X110295Y178071D03*
Y171378D03*
Y164685D03*
X115315D03*
X120335D03*
Y171378D03*
Y178071D03*
X115315D03*
G54D32*
X150394Y168819D03*
Y172559D03*
Y176299D03*
X139370D03*
Y168819D03*
G54D33*
X145197Y154488D03*
Y151929D03*
Y149370D03*
X153465D03*
Y151929D03*
Y154488D03*
G54D34*
X169843Y149961D03*
X167874D03*
X165906D03*
X163937D03*
X161969D03*
Y138937D03*
X163937D03*
X165906D03*
X167874D03*
X169843D03*
X165906Y144449D03*
G54D35*
X163268Y189961D03*
X151457D03*
G54D36*
X165039Y174961D03*
Y164724D03*
G54D37*
X140948Y183150D03*
X132448D03*
G54D38*
X170630Y137362D02*
X160787D01*
Y151535*
X170630*
Y137362*
X169843Y151929D02*
X170630Y152717D01*
X169055*
X169843Y151929*
X161772Y162677D02*
Y179588D01*
X153071*
Y162677*
X161772*
X154402Y171024D02*
X160402D01*
X145039Y187520D02*
X128128D01*
Y178819*
X145039*
Y187520*
X136693Y180150D02*
Y186150D01*
X150774Y161919D02*
Y159335D01*
Y161919D02*
X151579D01*
X151848Y161796*
X151937Y161673*
X152027Y161427*
Y161181*
X151937Y160935*
X151848Y160812*
X151579Y160689*
X150774*
X151400D02*
X152027Y159335D01*
X152832Y161427D02*
X153011Y161550D01*
X153279Y161919*
Y159335*
X154174Y161304D02*
Y161427D01*
X154264Y161673*
X154353Y161796*
X154532Y161919*
X154890*
X155069Y161796*
X155158Y161673*
X155248Y161427*
Y161181*
X155158Y160935*
X154979Y160565*
X154085Y159335*
X155337*
X161378Y141496D02*
X170039D01*
Y146729*
X169367Y147402*
X161378*
Y141496*
Y147402*
X161575Y141496D02*
Y147402D01*
X161772Y141496D02*
Y147402D01*
X161969Y141496D02*
Y147402D01*
X162165Y141496D02*
Y147402D01*
X162362Y141496D02*
Y147402D01*
X162559Y141496D02*
Y147402D01*
X162756Y141496D02*
Y147402D01*
X162953Y141496D02*
Y147402D01*
X163150Y141496D02*
Y147402D01*
X163346Y141496D02*
Y147402D01*
X163543Y141496D02*
Y147402D01*
X163740Y141496D02*
Y147402D01*
X163937Y141496D02*
Y147402D01*
X164134Y141496D02*
Y147402D01*
X164331Y141496D02*
Y147402D01*
X164528Y141496D02*
Y147402D01*
X164724Y141496D02*
Y147402D01*
X164921Y141496D02*
Y147402D01*
X165118Y141496D02*
Y147402D01*
X165315Y141496D02*
Y147402D01*
X165512Y141496D02*
Y147402D01*
X165709Y141496D02*
Y147402D01*
X165906Y141496D02*
Y147402D01*
X166102Y141496D02*
Y147402D01*
X166299Y141496D02*
Y147402D01*
X166496Y141496D02*
Y147402D01*
X166693Y141496D02*
Y147402D01*
X166890Y141496D02*
Y147402D01*
X167087Y141496D02*
Y147402D01*
X167283Y141496D02*
Y147402D01*
X167480Y141496D02*
Y147402D01*
X167677Y141496D02*
Y147402D01*
X167874Y141496D02*
Y147402D01*
X168071Y141496D02*
Y147402D01*
X168268Y141496D02*
Y147402D01*
X168465Y141496D02*
Y147402D01*
X168661Y141496D02*
Y147402D01*
X168858Y141496D02*
Y147402D01*
X169055Y141496D02*
Y147402D01*
X169252Y141496D02*
Y147402D01*
X169449Y141496D02*
Y147320D01*
X169646Y141496D02*
Y147123D01*
X169843Y141496D02*
Y146926D01*
X0Y0D02*
M02*
