*
*
G04 PADS VX.2.3 Build Number: 9191294 generated Gerber (RS-274-X) file*
G04 PC Version=2.1*
*
%IN "layoutfile-20190621.pcb"*%
*
%MOIN*%
*
%FSLAX35Y35*%
*
*
*
*
G04 PC Standard Apertures*
*
*
G04 Thermal Relief Aperture macro.*
%AMTER*
1,1,$1,0,0*
1,0,$1-$2,0,0*
21,0,$3,$4,0,0,45*
21,0,$3,$4,0,0,135*
%
*
*
G04 Annular Aperture macro.*
%AMANN*
1,1,$1,0,0*
1,0,$2,0,0*
%
*
*
G04 Odd Aperture macro.*
%AMODD*
1,1,$1,0,0*
1,0,$1-0.005,0,0*
%
*
*
G04 PC Custom Aperture Macros*
*
*
*
*
*
*
G04 PC Aperture Table*
*
%ADD010C,0.001*%
%ADD011C,0.05906*%
%ADD013C,0.03937*%
%ADD015R,0.0315X0.02992*%
%ADD017R,0.035X0.04*%
%ADD018R,0.04X0.035*%
%ADD019R,0.06X0.055*%
%ADD024C,0.02165*%
%ADD025C,0.006*%
%ADD026C,0.01*%
%ADD027C,0.02*%
%ADD028C,0.01969*%
%ADD029C,0.02362*%
%ADD030C,0.004*%
%ADD031R,0.01575X0.01575*%
%ADD032R,0.04331X0.02362*%
%ADD033R,0.02756X0.01575*%
%ADD034R,0.00984X0.02756*%
%ADD035R,0.06299X0.08661*%
%ADD036R,0.02756X0.0315*%
%ADD037R,0.055X0.06*%
%ADD038C,0.00394*%
%ADD039C,0.015*%
%ADD040C,0.00787*%
*
*
*
*
G04 PC Circuitry*
G04 Layer Name layoutfile-20190621.pcb - circuitry*
%LPD*%
*
*
G04 PC Custom Flashes*
G04 Layer Name layoutfile-20190621.pcb - flashes*
%LPD*%
*
*
G04 PC Circuitry*
G04 Layer Name layoutfile-20190621.pcb - circuitry*
%LPD*%
*
G54D10*
G54D11*
G01X122441Y104134D03*
X132441D03*
X142441D03*
X152441D03*
G54D13*
X133268Y118465D03*
X137264Y148465D03*
X141260Y118465D03*
G54D15*
X170079Y174961D03*
Y180945D03*
G54D17*
X162748Y156181D03*
X168748D03*
X139496Y154409D03*
X133496D03*
X146504Y161772D03*
X140504D03*
G54D18*
X169055Y126055D03*
Y132055D03*
X162480Y126055D03*
Y132055D03*
X133386Y168157D03*
Y162157D03*
X155827Y132016D03*
Y126016D03*
G54D19*
X157402Y166768D03*
Y175268D03*
G54D24*
X147835Y184016D03*
X163583D03*
G54D25*
X142441Y104488D02*
Y108386D01*
X144134Y110079*
X151614*
X107283Y122244D02*
X130039D01*
X133583Y125787*
X137441*
X169055Y121969D02*
Y126055D01*
X168969Y126142*
X105276Y140709D02*
X137520D01*
X110276Y133425D02*
X142520D01*
X124291Y147343D02*
Y147461D01*
X126240Y149409*
Y158760*
X124291Y147343D02*
Y147323D01*
X124272Y147343*
X142559Y143504D02*
X147087Y138976D01*
X157244*
X150394Y149409D02*
X150551D01*
X145197Y146969D02*
Y149370D01*
X153425Y149409D02*
X153465Y149370D01*
Y151929D02*
Y151890D01*
X156063*
X104390Y158760D02*
Y150748D01*
X107972Y147165*
X108130Y147323*
X124291*
X113642Y158760D02*
Y161339D01*
X113622Y153701D02*
X113642Y153720D01*
Y158760*
X115315D02*
Y157126D01*
X116378Y156063*
Y155984*
X128425Y160984D02*
X128622Y161181D01*
X128386Y160984D02*
Y160945D01*
X128425Y160984*
X128386Y160945D02*
Y145669D01*
X130315Y143740*
X142323*
X142559Y143504*
X133386Y162157D02*
X136173D01*
X136181Y162165*
X133496Y154409D02*
Y158142D01*
X133504Y158150*
X133496Y154409D02*
Y150874D01*
X133504Y150866*
X158740Y156181D02*
X162748D01*
X106949Y171378D02*
Y171358D01*
X109724Y168583*
X118819Y168701D02*
X119764Y169646D01*
X123248*
X123681Y170079*
Y171378*
X115315Y164685D02*
Y166850D01*
X115354Y166890*
X150394Y172559D02*
X151772D01*
X157402Y166929D02*
Y166768D01*
X159327Y164843*
X159524Y165039*
X162087*
X165039Y164724D02*
Y164685D01*
X167913*
X102598Y176378D02*
X102618Y176398D01*
X104390*
X102638Y173150D02*
X104291D01*
X104390Y173051*
X104409Y182283D02*
X104390Y182303D01*
Y179744*
X110295Y178071D02*
X112380D01*
X112423Y178028*
X112598Y177953*
X106949Y178071D02*
X106969D01*
X109370Y175669*
X117874Y177677D02*
Y177835D01*
X118110Y178071*
X119252Y174409D02*
Y174469D01*
X120285Y175502*
Y175581*
X120335Y175630*
Y178071*
X118366Y174449D02*
X119252Y174409D01*
X115315Y178071D02*
X118110D01*
X126220Y182165D02*
X126240Y182146D01*
Y179744*
X126220Y182165D02*
X126240Y182185D01*
Y184567*
X123681Y174724D02*
X128780D01*
X128898Y174606*
X104291Y187087D02*
Y189291D01*
X104390Y189390*
X104291Y187087D02*
X104390Y186988D01*
Y184567*
Y182303*
X126220Y187165D02*
X126240Y187185D01*
Y189390*
X126220Y187165D02*
X126240Y187146D01*
Y184567*
G54D26*
X131938Y104597D02*
Y109615D01*
X135866Y113543*
X169252*
X172520Y116811*
Y131150*
X155827Y132016D02*
X155866Y132055D01*
X162480*
X163457Y133031*
X163937*
Y138937*
X169055Y132055D02*
X171614D01*
X172520Y131150*
X169055Y132055D02*
X169244Y132244D01*
X169843*
Y138937*
X157244Y138976D02*
X161929D01*
X161969Y138937*
X167874D02*
Y133386D01*
X169055Y132205*
Y132055*
X165906Y149961D02*
Y152441D01*
X166614Y153150*
X169843*
X145197Y154488D02*
X140504D01*
Y161772*
X139496Y154409D02*
X139575Y154488D01*
X140504*
X169331Y156181D02*
Y155165D01*
X169843Y155087*
Y153150*
Y149961*
X169331Y161496D02*
Y156181D01*
X168748D02*
X169331Y155165D01*
X135000Y168465D02*
X139764D01*
X139370Y168819D02*
X139409D01*
X139764Y168465*
X151772Y172559D02*
X157402Y166929D01*
G54D27*
X146504Y161772D02*
X150551D01*
X153465Y158858*
Y154488*
X132362Y176339D02*
Y176417D01*
Y183063*
X132448Y183150*
X132362Y176339D02*
X139048D01*
X139370Y176299*
X132362Y176339D02*
Y173228D01*
X132717Y172874*
X139528Y176299D02*
X140748D01*
X143346*
X144843Y174803*
Y166228*
X146504Y164567*
Y161772*
X139370Y176299D02*
X139528D01*
X150394D02*
X156417D01*
X157402Y175315*
Y175268*
X162283D02*
X162394D01*
X162402*
X169771*
X170079Y174961*
X162283Y175268D02*
Y175157D01*
X162394Y175268*
X157402D02*
X162283D01*
X170551Y180945D02*
Y180827D01*
X163268Y189961D02*
X168071D01*
X170551Y187480*
Y180945*
X125236Y106929D02*
X124529Y106222D01*
X119646Y106929D02*
X120353Y106222D01*
G54D28*
X109300Y112423D03*
Y107423D03*
X104300D03*
Y112423D03*
X119300D03*
X114300D03*
Y107423D03*
X159300D03*
X169300D03*
X164300D03*
X109300Y117423D03*
X104300D03*
X114300D03*
X159300Y122423D03*
X154300Y142423D03*
X124300Y152423D03*
X113622Y153701D03*
X144300Y157423D03*
X118819Y168701D03*
X139300Y172423D03*
X102598Y176378D03*
X102638Y173150D03*
X112598Y177953D03*
X109370Y175669D03*
G54D29*
X151614Y110079D03*
X107283Y122244D03*
X169055Y121969D03*
X137441Y125787D03*
X105276Y140709D03*
X110276Y133425D03*
X137520Y140709D03*
X142520Y133425D03*
X157244Y138976D03*
X132047Y146811D03*
X124291Y147323D03*
X133504Y150866D03*
X142559Y143504D03*
X150551Y149409D03*
X145197Y146969D03*
X156063Y151890D03*
X116378Y155984D03*
X128386Y160984D03*
X136181Y162165D03*
X133504Y158150D03*
X158740Y156181D03*
X169331Y161496D03*
X109724Y168583D03*
X115354Y166890D03*
X162087Y165039D03*
X167953Y168583D03*
X167913Y164685D03*
X104409Y182283D03*
X117874Y177677D03*
X119252Y174409D03*
X128898Y174606D03*
X126220Y182165D03*
X132717Y172874D03*
X162283Y175157D03*
X104291Y187087D03*
X126220Y187165D03*
X132362Y188937D03*
X132913Y195748D03*
X130906Y192874D03*
X136732Y195984D03*
X135551Y192756D03*
G54D30*
X149966Y184016D02*
G75*
G03X149966I-2131J0D01*
G01X144028Y118465D02*
G03X144028I-2768J0D01*
G01X136036D02*
G03X136036I-2768J0D01*
G01X173603Y115290D02*
G03X173262Y115432I-200J0D01*
G01X170313Y112483*
X169252Y112043D02*
G03X170313Y112483I-0J1500D01*
G01X169252Y112043D02*
X153213D01*
G03X153013Y111843I-0J-200*
X153079Y111695I200J0*
G01X153795Y110079D02*
G03X153079Y111695I-2181J-0D01*
G01X152990Y108386D02*
G03X153795Y110079I-1376J1693D01*
G01X152990Y108386D02*
G03X152916Y108231I126J-155D01*
X153084Y108034I200J0*
G01X156394Y104134D02*
G03X153084Y108034I-3953J-0D01*
G01X155416Y101532D02*
G03X156394Y104134I-2975J2602D01*
G01X155416Y101532D02*
G03X155367Y101400I151J-132D01*
X155567Y101200I200J0*
G01X173403*
G03X173603Y101400I0J200*
G01Y115290*
Y197025D02*
G03X173403Y197225I-200J0D01*
G01X128353*
G03X128153Y197025I-0J-200*
G01Y190433*
X128133Y190346D02*
G03X128153Y190433I-180J87D01*
G01X128133Y190346D02*
G03X128113Y190267I180J-87D01*
G01X127913Y190076D02*
G03X128113Y190267I0J200D01*
G01X127913Y190076D02*
X125558D01*
X125558D02*
G03X125358Y189876I-0J-200D01*
G01X125358D02*
Y179362D01*
X125358D02*
G03X125376Y179278I200J0D01*
G01X125469Y178858D02*
G03X125376Y179278I-1000J0D01*
G01X125469Y178858D02*
Y178385D01*
G03X125669Y178185I200J0*
G01X127028*
X128028Y177185D02*
G03X127028Y178185I-1000J0D01*
G01X128028Y177185D02*
Y176891D01*
G03X128284Y176699I200J0*
G01X130056Y176454D02*
G03X128284Y176699I-1158J-1848D01*
G01X130056Y176454D02*
G03X130362Y176624I106J170D01*
G01Y178950*
G03X130162Y179150I-200J-0*
G01X129698*
X128698Y180150D02*
G03X129698Y179150I1000J-0D01*
G01X128698Y180150D02*
Y186150D01*
X129698Y187150D02*
G03X128698Y186150I0J-1000D01*
G01X129698Y187150D02*
X135198D01*
X136198Y186150D02*
G03X135198Y187150I-1000J-0D01*
G01X136198Y186150D02*
Y180150D01*
X135198Y179150D02*
G03X136198Y180150I0J1000D01*
G01X135198Y179150D02*
X134562D01*
G03X134362Y178950I0J-200*
G01Y178539*
G03X134562Y178339I200J-0*
G01X136639*
G03X136733Y178362I-0J200*
G01X137205Y178480D02*
G03X136733Y178362I-0J-1000D01*
G01X137205Y178480D02*
X141535D01*
X142064Y178329D02*
G03X141535Y178480I-529J-849D01*
G01X142064Y178329D02*
G03X142169Y178299I105J170D01*
G01X143346*
X144761Y177713D02*
G03X143346Y178299I-1415J-1414D01*
G01X144761Y177713D02*
X146257Y176217D01*
X146843Y174803D02*
G03X146257Y176217I-2000J0D01*
G01X146843Y174803D02*
Y170184D01*
G03X147240Y170153I200J0*
G01X148228Y171000D02*
G03X147240Y170153I0J-1000D01*
G01X148228Y171000D02*
X152559D01*
X153559Y170000D02*
G03X152559Y171000I-1000J0D01*
G01X153559Y170000D02*
Y167638D01*
X152559Y166638D02*
G03X153559Y167638I0J1000D01*
G01X152559Y166638D02*
X148228D01*
X147614Y166848D02*
G03X148228Y166638I614J790D01*
G01X147614Y166848D02*
G03X147481Y166890I-122J-157D01*
Y166901I-200J11*
X147439Y167024I-200J0*
G01X147240Y167484D02*
G03X147439Y167024I988J154D01*
G01X147240Y167484D02*
G03X146843Y167454I-197J-30D01*
G01Y167140*
G03X146901Y166998I200J-0*
G01X147140Y166760*
G03X147292Y166701I141J141*
Y166691I200J-10*
X147350Y166549I200J-0*
G01X147918Y165981*
X148482Y164864D02*
G03X147918Y165981I-1978J-297D01*
G01X148482Y164864D02*
G03X148609Y164707I198J30D01*
G01X149240Y163938D02*
G03X148609Y164707I-986J-166D01*
G01X149240Y163938D02*
G03X149437Y163772I197J34D01*
G01X150551*
X151965Y163186D02*
G03X150551Y163772I-1414J-1414D01*
G01X151965Y163186D02*
X154879Y160272D01*
X155465Y158858D02*
G03X154879Y160272I-2000J0D01*
G01X155465Y158858D02*
Y156150D01*
G03X155528Y156004I200J-0*
G01X155843Y155276D02*
G03X155528Y156004I-1000J-0D01*
G01X155843Y155276D02*
Y154271D01*
G03X156044Y154071I200J-0*
G01X158244Y151890D02*
G03X156044Y154071I-2181J-0D01*
G01Y149709D02*
G03X158244Y151890I19J2181D01*
G01X156044Y149709D02*
G03X155843Y149509I-1J-200D01*
G01Y148583*
X154843Y147583D02*
G03X155843Y148583I-0J1000D01*
G01X154843Y147583D02*
X152087D01*
X151882Y147604D02*
G03X152087Y147583I205J979D01*
G01X151882Y147604D02*
G03X151733Y147576I-41J-196D01*
G01X148444Y148846D02*
G03X151733Y147576I2107J563D01*
G01X148444Y148846D02*
G03X148392Y148936I-193J-51D01*
G01X147208Y150121*
G03X147066Y150179I-142J-142*
G01X146872*
G03X146823Y150173I0J-200*
G01X146575Y150142D02*
G03X146823Y150173I-0J1000D01*
G01X146575Y150142D02*
X143819D01*
X142819Y151142D02*
G03X143819Y150142I1000J-0D01*
G01X142819Y151142D02*
Y152717D01*
X142821Y152776D02*
G03X142819Y152717I998J-59D01*
G01X142821Y152776D02*
G03Y152788I-200J12D01*
X142621Y152988I-200J0*
G01X142446*
G03X142246Y152788I0J-200*
G01Y152409*
X141246Y151409D02*
G03X142246Y152409I0J1000D01*
G01X141246Y151409D02*
X138394D01*
G03X138194Y151209I0J-200*
X138318Y151024I200J0*
G01X140032Y148465D02*
G03X138318Y151024I-2768J-0D01*
G01X134495Y148465D02*
G03X140032I2769J-0D01*
G01X137072Y151226D02*
G03X134495Y148465I192J-2761D01*
G01X137072Y151226D02*
G03X137258Y151426I-14J200D01*
X137173Y151590I-200J-0*
G01X136746Y152409D02*
G03X137173Y151590I1000J0D01*
G01X136746Y152409D02*
Y156409D01*
X137746Y157409D02*
G03X136746Y156409I0J-1000D01*
G01X137746Y157409D02*
X138804D01*
G03X139004Y157609I-0J200*
G01Y158572*
G03X138804Y158772I-200J-0*
G01X138754*
X137754Y159772D02*
G03X138754Y158772I1000J-0D01*
G01X137754Y159772D02*
Y163772D01*
X138754Y164772D02*
G03X137754Y163772I-0J-1000D01*
G01X138754Y164772D02*
X142254D01*
X143254Y163772D02*
G03X142254Y164772I-1000J-0D01*
G01X143254Y163772D02*
Y159772D01*
X142254Y158772D02*
G03X143254Y159772I-0J1000D01*
G01X142254Y158772D02*
X142204D01*
G03X142004Y158572I-0J-200*
G01Y157132*
G03X142044Y157012I200J0*
G01X142246Y156409D02*
G03X142044Y157012I-1000J0D01*
G01X142246Y156409D02*
Y156188D01*
G03X142446Y155988I200J0*
G01X143040*
G03X143170Y156036I-0J200*
G01X143819Y156276D02*
G03X143170Y156036I-0J-1000D01*
G01X143819Y156276D02*
X146575D01*
X147575Y155276D02*
G03X146575Y156276I-1000J-0D01*
G01X147575Y155276D02*
Y153879D01*
G03X147775Y153679I200J0*
G01X147874*
X149111Y153167D02*
G03X147874Y153679I-1237J-1238D01*
G01X149111Y153167D02*
X150640Y151638D01*
G03X150762Y151580I141J141*
G01X150858Y151569D02*
G03X150762Y151580I-307J-2160D01*
G01X150858Y151569D02*
G03X151087Y151767I29J198D01*
G01Y152717*
X151175Y153127D02*
G03X151087Y152717I912J-410D01*
G01X151175Y153127D02*
G03X151192Y153209I-183J82D01*
X151175Y153291I-200J-0*
G01X151087Y153701D02*
G03X151175Y153291I1000J-0D01*
G01X151087Y153701D02*
Y155276D01*
X151402Y156004D02*
G03X151087Y155276I685J-728D01*
G01X151402Y156004D02*
G03X151465Y156150I-137J146D01*
G01Y157947*
G03X151406Y158088I-200J-0*
G01X149781Y159713*
G03X149640Y159772I-141J-141*
G01X149437*
G03X149240Y159605I0J-200*
G01X148254Y158772D02*
G03X149240Y159605I-0J1000D01*
G01X148254Y158772D02*
X144754D01*
X143754Y159772D02*
G03X144754Y158772I1000J-0D01*
G01X143754Y159772D02*
Y163772D01*
X143851Y164202D02*
G03X143754Y163772I903J-430D01*
G01X143851Y164202D02*
G03X143812Y164430I-180J87D01*
G01X143428Y164814*
X142842Y166228D02*
G03X143428Y164814I2001J0D01*
G01X142842Y166228D02*
Y167175D01*
X142842D02*
G03X142458Y167252I-200J-0D01*
G01X141535Y166638D02*
G03X142458Y167252I0J1000D01*
G01X141535Y166638D02*
X137205D01*
X136689Y166781D02*
G03X137205Y166638I516J857D01*
G01X136689Y166781D02*
G03X136386Y166610I-103J-171D01*
G01Y166407*
X135386Y165407D02*
G03X136386Y166407I-0J1000D01*
G01X135386Y165407D02*
X131386D01*
X130386Y166407D02*
G03X131386Y165407I1000J0D01*
G01X130386Y166407D02*
Y169907D01*
X131187Y170887D02*
G03X130386Y169907I199J-980D01*
G01X131187Y170887D02*
G03X131347Y171083I-40J196D01*
X131279Y171234I-200J0*
G01X130643Y172197D02*
G03X131279Y171234I2074J677D01*
G01X130643Y172197D02*
G03X130626Y172235I-190J-62D01*
G01X130435Y172694D02*
G03X130626Y172235I1927J534D01*
G01X130435Y172694D02*
G03X130129Y172806I-193J-53D01*
G01X128284Y172513D02*
G03X130129Y172806I614J2093D01*
G01X128284Y172513D02*
G03X128028Y172321I-56J-192D01*
G01Y172264*
X127702Y171526D02*
G03X128028Y172264I-674J738D01*
G01X127702Y171526D02*
G03X127637Y171378I135J-148D01*
X127702Y171230I200J-0*
G01X128028Y170492D02*
G03X127702Y171230I-1000J0D01*
G01X128028Y170492D02*
Y168917D01*
X127702Y168179D02*
G03X128028Y168917I-674J738D01*
G01X127702Y168179D02*
G03X127637Y168031I135J-148D01*
X127702Y167884I200J0*
G01X128028Y167146D02*
G03X127702Y167884I-1000J-0D01*
G01X128028Y167146D02*
Y165571D01*
X127702Y164833D02*
G03X128028Y165571I-674J738D01*
G01X127702Y164833D02*
G03X127637Y164685I135J-148D01*
X127702Y164537I200J0*
G01X128028Y163799D02*
G03X127702Y164537I-1000J0D01*
G01X128028Y163799D02*
Y163360D01*
G03X128241Y163161I200J0*
G01X130567Y160984D02*
G03X128241Y163161I-2181J0D01*
G01X129760Y159290D02*
G03X130567Y160984I-1374J1694D01*
G01X129760Y159290D02*
G03X129686Y159135I126J-155D01*
G01Y146291*
G03X129744Y146149I200J-0*
G01X130795Y145099*
G03X130936Y145040I141J141*
G01X140930*
G03X141066Y145094I-0J200*
G01X144740Y143504D02*
G03X141066Y145094I-2181J-0D01*
G01X144728Y143278D02*
G03X144740Y143504I-2169J226D01*
G01X144728Y143278D02*
G03X144786Y143116I199J-21D01*
G01X147567Y140335*
G03X147708Y140276I141J141*
G01X155395*
G03X155550Y140350I-0J200*
G01X158771Y140534D02*
G03X155550Y140350I-1527J-1558D01*
G01X158771Y140534D02*
G03X158911Y140476I140J142D01*
G01X160155*
G03X160355Y140676I0J200*
X160326Y140780I-200J0*
G01X160181Y141299D02*
G03X160326Y140780I1000J0D01*
G01X160181Y141299D02*
Y147598D01*
X161181Y148598D02*
G03X160181Y147598I0J-1000D01*
G01X161181Y148598D02*
X162245D01*
G03X162445Y148798I-0J200*
G01Y151339*
X163445Y152339D02*
G03X162445Y151339I-0J-1000D01*
G01X163445Y152339D02*
X164208D01*
G03X164408Y152527I0J200*
G01X164845Y153502D02*
G03X164408Y152527I1061J-1061D01*
G01X164845Y153502D02*
X165553Y154210D01*
X165894Y154465D02*
G03X165553Y154210I720J-1315D01*
G01X165894Y154465D02*
G03X165998Y154641I-96J176D01*
G01Y158181*
X166998Y159181D02*
G03X165998Y158181I0J-1000D01*
G01X166998Y159181D02*
X167631D01*
G03X167831Y159381I-0J200*
G01Y159829*
G03X167773Y159969I-200J-0*
G01X167150Y161496D02*
G03X167773Y159969I2181J0D01*
G01X171512Y161496D02*
G03X167150I-2181J0D01*
G01X170888Y159969D02*
G03X171512Y161496I-1557J1527D01*
G01X170888Y159969D02*
G03X170831Y159829I143J-140D01*
G01Y159256*
G03X170942Y159077I200J0*
G01X171498Y158181D02*
G03X170942Y159077I-1000J0D01*
G01X171498Y158181D02*
Y154181D01*
X171368Y153689D02*
G03X171498Y154181I-870J492D01*
G01X171368Y153689D02*
G03X171343Y153590I175J-99D01*
G01Y149961*
X171336Y149816D02*
G03X171343Y149961I-1493J145D01*
G01X171336Y149816D02*
G03X171335Y149797I199J-19D01*
G01Y148583*
X170966Y147807D02*
G03X171335Y148583I-631J776D01*
G01X170966Y147807D02*
G03X170892Y147652I126J-155D01*
X170950Y147512I200J0*
G01X171236Y146811D02*
G03X170950Y147512I-1000J0D01*
G01X171236Y146811D02*
Y141299D01*
X171184Y140980D02*
G03X171236Y141299I-948J319D01*
G01X171184Y140980D02*
G03X171173Y140916I189J-64D01*
G01X171173*
G03X171200Y140816I200J-0*
G01X171335Y140315D02*
G03X171200Y140816I-1000J-0D01*
G01X171335Y140315D02*
Y139100D01*
G03X171336Y139081I200J0*
G01X171343Y138937D02*
G03X171336Y139081I-1500J0D01*
G01X171343Y138937D02*
Y134902D01*
G03X171461Y134719I200J-0*
G01X172055Y133805D02*
G03X171461Y134719I-1000J0D01*
G01X172055Y133805D02*
Y133630D01*
G03X172180Y133444I200J-0*
G01X172675Y133116D02*
G03X172180Y133444I-1061J-1061D01*
G01X172675Y133116D02*
X173262Y132529D01*
G03X173603Y132670I141J141*
G01Y197025*
X171020Y129105D02*
G03X170820Y129305I-200J0D01*
G01X167055*
X166055Y130305D02*
G03X167055Y129305I1000J0D01*
G01X166055Y130305D02*
Y133805D01*
X166321Y134484D02*
G03X166055Y133805I734J-679D01*
G01X166321Y134484D02*
G03X166374Y134620I-147J136D01*
G01Y138937*
X166381Y139081D02*
G03X166374Y138937I1493J-144D01*
G01X166381Y139081D02*
G03X166382Y139100I-199J19D01*
G01Y140099*
G03X166182Y140299I-200J0*
G01X165629*
G03X165429Y140099I0J-200*
G01Y139100*
G03X165430Y139081I200J0*
G01X165437Y138937D02*
G03X165430Y139081I-1500J0D01*
G01X165437Y138937D02*
Y134125D01*
G03X165444Y134071I200J-0*
G01X165480Y133805D02*
G03X165444Y134071I-1000J0D01*
G01X165480Y133805D02*
Y130305D01*
X164480Y129305D02*
G03X165480Y130305I0J1000D01*
G01X164480Y129305D02*
X160480D01*
X159480Y130305D02*
G03X160480Y129305I1000J0D01*
G01X159480Y130305D02*
Y130355D01*
G03X159280Y130555I-200J0*
G01X159027*
G03X158827Y130355I-0J-200*
G01Y130266*
X157827Y129266D02*
G03X158827Y130266I-0J1000D01*
G01X157827Y129266D02*
X153827D01*
X152827Y130266D02*
G03X153827Y129266I1000J-0D01*
G01X152827Y130266D02*
Y133766D01*
X153827Y134766D02*
G03X152827Y133766I-0J-1000D01*
G01X153827Y134766D02*
X157827D01*
X158827Y133766D02*
G03X157827Y134766I-1000J-0D01*
G01X158827Y133766D02*
Y133755D01*
G03X159027Y133555I200J0*
G01X159280*
G03X159480Y133755I0J200*
G01Y133805*
X160480Y134805D02*
G03X159480Y133805I0J-1000D01*
G01X160480Y134805D02*
X162237D01*
G03X162437Y135005I-0J200*
G01Y136359*
G03X162237Y136559I-200J0*
G01X161476*
X160505Y137323D02*
G03X161476Y136559I971J236D01*
G01X160504Y137323D02*
G03X160310Y137476I-194J-47D01*
G01X158911*
G03X158771Y137419I0J-200*
G01X155550Y137602D02*
G03X158771Y137419I1694J1374D01*
G01X155550Y137602D02*
G03X155395Y137676I-155J-126D01*
G01X147087*
X146167Y138057D02*
G03X147087Y137676I920J919D01*
G01X146167Y138057D02*
X142947Y141277D01*
G03X142785Y141335I-141J-141*
G01X140711Y142346D02*
G03X142785Y141335I1848J1158D01*
G01X140710Y142346D02*
G03X140541Y142440I-169J-106D01*
G01X139343*
G03X139143Y142240I-0J-200*
X139190Y142112I200J0*
G01X139701Y140709D02*
G03X139190Y142111I-2181J-0D01*
G01X135826Y139335D02*
G03X139701Y140709I1694J1374D01*
G01X135826Y139335D02*
G03X135670Y139409I-156J-126D01*
G01X107125*
G03X106970Y139335I-0J-200*
G01X103094Y140709D02*
G03X106970Y139335I2182J-0D01*
G01Y142083D02*
G03X103094Y140709I-1694J-1374D01*
G01X106970Y142083D02*
G03X107125Y142009I155J126D01*
G01X135670*
G03X135826Y142083I0J200*
G01X135850Y142112D02*
G03X135826Y142083I1670J-1403D01*
G01X135850Y142112D02*
G03X135896Y142240I-154J128D01*
X135696Y142440I-200J0*
G01X130315*
X129396Y142821D02*
G03X130315Y142440I919J919D01*
G01X129396Y142821D02*
X127467Y144750D01*
X127086Y145669D02*
G03X127467Y144750I1300J0D01*
G01X127086Y145669D02*
Y159135D01*
G03X127012Y159290I-200J0*
G01X126619Y159705D02*
G03X127012Y159290I1767J1279D01*
G01X126619Y159705D02*
G03X126457Y159787I-162J-118D01*
G01X125183*
G03X125064Y159748I0J-200*
G01X124469Y159551D02*
G03X125064Y159748I-0J1000D01*
G01X124469Y159551D02*
X123995D01*
G03X123795Y159351I0J-200*
G01Y157972*
X122795Y156972D02*
G03X123795Y157972I0J1000D01*
G01X122795Y156972D02*
X121220D01*
X120482Y157298D02*
G03X121220Y156972I738J674D01*
G01X120482Y157298D02*
G03X120187I-147J-135D01*
G01X119449Y156972D02*
G03X120187Y157298I-0J1000D01*
G01X119449Y156972D02*
X118625D01*
G03X118425Y156772I-0J-200*
X118436Y156706I200J0*
G01X118559Y155984D02*
G03X118436Y156706I-2181J0D01*
G01X115854Y153867D02*
G03X118559Y155984I524J2117D01*
G01X115854Y153867D02*
G03X115606Y153675I-48J-194D01*
G01X111638Y153701D02*
G03X115606Y153675I1984J-0D01*
G01X112277Y155160D02*
G03X111638Y153701I1345J-1459D01*
G01X112277Y155160D02*
G03X112342Y155307I-135J147D01*
G01Y156772*
G03X112142Y156972I-200J0*
G01X111181*
X110443Y157298D02*
G03X111181Y156972I738J674D01*
G01X110443Y157298D02*
G03X110148I-148J-135D01*
G01X109409Y156972D02*
G03X110148Y157298I0J1000D01*
G01X109409Y156972D02*
X107835D01*
X106835Y157972D02*
G03X107835Y156972I1000J0D01*
G01X106835Y157972D02*
Y159351D01*
G03X106635Y159551I-200J0*
G01X106161*
X105161Y160551D02*
G03X106161Y159551I1000J0D01*
G01X105161Y160551D02*
Y161024D01*
G03X104961Y161224I-200J0*
G01X103602*
X102602Y162224D02*
G03X103602Y161224I1000J0D01*
G01X102602Y162224D02*
Y163799D01*
X102928Y164537D02*
G03X102602Y163799I674J-738D01*
G01X102928Y164537D02*
G03X102993Y164685I-135J148D01*
X102928Y164833I-200J0*
G01X102602Y165571D02*
G03X102928Y164833I1000J-0D01*
G01X102602Y165571D02*
Y167146D01*
X102928Y167884D02*
G03X102602Y167146I674J-738D01*
G01X102928Y167884D02*
G03X102993Y168031I-135J147D01*
X102928Y168179I-200J0*
G01X102602Y168917D02*
G03X102928Y168179I1000J0D01*
G01X102602Y168917D02*
Y170492D01*
X102685Y170890D02*
G03X102602Y170492I917J-398D01*
G01X102685Y170890D02*
G03X102701Y170970I-184J80D01*
X102514Y171169I-200J-0*
G01X101513Y171515D02*
G03X102514Y171169I1125J1635D01*
G01X101513Y171515D02*
G03X101200Y171350I-113J-165D01*
G01Y101400*
G03X101400Y101200I200J0*
G01X119315*
G03X119515Y101400I-0J200*
X119466Y101532I-200J0*
G01X118488Y104134D02*
G03X119466Y101532I3953J-0D01*
G01X126394Y104134D02*
G03X118488I-3953J-0D01*
G01X125416Y101532D02*
G03X126394Y104134I-2975J2602D01*
G01X125416Y101532D02*
G03X125367Y101400I151J-132D01*
X125567Y101200I200J0*
G01X129315*
G03X129515Y101400I-0J200*
X129466Y101532I-200J0*
G01X128488Y104134D02*
G03X129466Y101532I3953J-0D01*
G01X130344Y107485D02*
G03X128488Y104134I2097J-3351D01*
G01X130344Y107485D02*
G03X130438Y107654I-106J169D01*
G01Y109615*
X130877Y110676D02*
G03X130438Y109615I1061J-1061D01*
G01X130877Y110676D02*
X134805Y114604D01*
X135866Y115043D02*
G03X134805Y114604I0J-1500D01*
G01X135866Y115043D02*
X168548D01*
G03X168689Y115102I-0J200*
G01X170961Y117374*
G03X171020Y117515I-141J141*
G01Y129105*
X142842Y173892D02*
G03X142784Y174033I-200J-0D01*
G01X142577Y174241*
G03X142435Y174299I-142J-142*
G01X142169*
G03X142064Y174269I0J-200*
G01X141535Y174118D02*
G03X142064Y174269I0J1000D01*
G01X141535Y174118D02*
X137205D01*
X136627Y174302D02*
G03X137205Y174118I578J816D01*
G01X136627Y174302D02*
G03X136512Y174339I-115J-163D01*
G01X134734*
G03X134534Y174139I0J-200*
X134565Y174032I200J-0*
G01X134898Y172874D02*
G03X134565Y174032I-2181J0D01*
G01X134179Y171256D02*
G03X134898Y172874I-1462J1618D01*
G01X134179Y171256D02*
G03X134113Y171108I134J-149D01*
G01X134113D02*
G03X134313Y170908I200J-0D01*
G01X134313D02*
X135386D01*
X136111Y170596D02*
G03X135386Y170907I-725J-689D01*
G01X136111Y170596D02*
G03X136414Y170612I145J138D01*
G01X137205Y171000D02*
G03X136414Y170612I-0J-1000D01*
G01X137205Y171000D02*
X141535D01*
X142458Y170386D02*
G03X141535Y171000I-923J-386D01*
G01X142458Y170386D02*
G03X142842Y170463I184J77D01*
G01X142842D02*
Y173892D01*
X122284Y166358D02*
G03X122219Y166506I-200J0D01*
G01X121894Y167244D02*
G03X122219Y166506I1000J0D01*
G01X121894Y167244D02*
Y168146D01*
G03X121694Y168346I-200J-0*
G01X120931*
G03X120738Y168196I0J-200*
G01X119555Y166858D02*
G03X120738Y168196I-736J1843D01*
G01X119555Y166858D02*
G03X119429Y166672I74J-186D01*
X119629Y166472I200J0*
G01X121122*
X121860Y166147D02*
G03X121122Y166472I-738J-675D01*
G01X121860Y166147D02*
G03X122156I148J135D01*
G01X122219Y166211D02*
G03X122156Y166147I675J-739D01*
G01X122219Y166211D02*
G03X122284Y166358I-135J147D01*
G01Y176398D02*
G03X122219Y176545I-200J-0D01*
G01X121894Y177283D02*
G03X122219Y176545I1000J0D01*
G01X121894Y177283D02*
Y178458D01*
G03X121694Y178658I-200J0*
G01X108936*
G03X108736Y178458I0J-200*
G01Y178224*
G03X108795Y178083I200J0*
G01X109167Y177711*
G03X109314Y177653I141J142*
G01X111354Y175669D02*
G03X109314Y177653I-1984J0D01*
G01X108916Y173738D02*
G03X111354Y175669I454J1931D01*
G01X108916Y173738D02*
G03X108681Y173609I-46J-195D01*
G01X108411Y173199D02*
G03X108681Y173609I-675J738D01*
G01X108411Y173199D02*
G03X108346Y173051I135J-148D01*
X108411Y172904I200J0*
G01X108474Y172840D02*
G03X108411Y172904I-738J-675D01*
G01X108474Y172840D02*
G03X108770I148J135D01*
G01X109508Y173165D02*
G03X108770Y172840I-0J-1000D01*
G01X109508Y173165D02*
X111083D01*
X112083Y172165D02*
G03X111083Y173165I-1000J0D01*
G01X112083Y172165D02*
Y170591D01*
X111719Y169819D02*
G03X112083Y170591I-636J772D01*
G01X111719Y169819D02*
G03X111646Y169664I127J-155D01*
X111668Y169573I200J0*
G01X111906Y168583D02*
G03X111668Y169573I-2182J-0D01*
G01X111025Y166831D02*
G03X111906Y168583I-1301J1752D01*
G01X111025Y166831D02*
G03X110944Y166671I119J-160D01*
X111134Y166471I200J-0*
G01X112083Y165472D02*
G03X111134Y166471I-1000J0D01*
G01X112083Y165472D02*
Y163898D01*
X111757Y163159D02*
G03X112083Y163898I-674J739D01*
G01X111757Y163159D02*
G03X111692Y163012I135J-147D01*
X111757Y162864I200J-0*
G01X111821Y162801D02*
G03X111757Y162864I-738J-675D01*
G01X111821Y162801D02*
G03X112116I148J135D01*
G01X112854Y163126D02*
G03X112116Y162801I0J-1000D01*
G01X112854Y163126D02*
X114429D01*
X115167Y162801D02*
G03X114429Y163126I-738J-675D01*
G01X115167Y162801D02*
G03X115463I148J135D01*
G01X116201Y163126D02*
G03X115463Y162801I-0J-1000D01*
G01X116201Y163126D02*
X117776D01*
X118514Y162801D02*
G03X117776Y163126I-738J-675D01*
G01X118514Y162801D02*
G03X118809I147J135D01*
G01X118873Y162864D02*
G03X118809Y162801I674J-738D01*
G01X118873Y162864D02*
G03X118938Y163012I-135J148D01*
X118873Y163159I-200J-0*
G01X118547Y163898D02*
G03X118873Y163159I1000J-0D01*
G01X118547Y163898D02*
Y165472D01*
X119061Y166347D02*
G03X118547Y165472I486J-875D01*
G01X119061Y166347D02*
G03X119164Y166521I-97J174D01*
X118951Y166721I-200J0*
G01X116835Y168701D02*
G03X118951Y166721I1984J-0D01*
G01X118390Y170638D02*
G03X116835Y168701I429J-1937D01*
G01X118390Y170638D02*
G03X118547Y170834I-43J196D01*
G01Y172165*
X119547Y173165D02*
G03X118547Y172165I0J-1000D01*
G01X119547Y173165D02*
X121122D01*
X121860Y172840D02*
G03X121122Y173165I-738J-675D01*
G01X121860Y172840D02*
G03X122156I148J135D01*
G01X122219Y172904D02*
G03X122156Y172840I675J-739D01*
G01X122219Y172904D02*
G03X122284Y173051I-135J147D01*
X122219Y173199I-200J0*
G01X121894Y173937D02*
G03X122219Y173199I1000J0D01*
G01X121894Y173937D02*
Y175512D01*
X122219Y176250D02*
G03X121894Y175512I675J-738D01*
G01X122219Y176250D02*
G03X122284Y176398I-135J148D01*
G01X105161Y178862D02*
G03X105158Y178900I-200J0D01*
G01X105154Y178937D02*
G03X105158Y178900I200J0D01*
G01X105154Y178937D02*
Y189876D01*
G03X104954Y190076I-200J-0*
G01X101400*
G03X101200Y189876I0J-200*
G01Y178204*
G03X101510Y178037I200J0*
G01X103395Y178195D02*
G03X101510Y178037I-797J-1817D01*
G01X103395Y178195D02*
G03X103497Y178179I81J183D01*
G01X103602Y178185D02*
G03X103497Y178179I0J-1000D01*
G01X103602Y178185D02*
X104961D01*
G03X105161Y178385I0J200*
G01Y178862*
X172654Y176457D02*
Y173465D01*
X171654Y172465D02*
G03X172654Y173465I-0J1000D01*
G01X171654Y172465D02*
X168504D01*
X167653Y172939D02*
G03X168504Y172465I851J526D01*
G01X167653Y172939D02*
G03X167305Y172926I-170J-105D01*
G01X166417Y172386D02*
G03X167305Y172926I0J1000D01*
G01X166417Y172386D02*
X163661D01*
X162789Y172897D02*
G03X163661Y172386I872J489D01*
G01X162789Y172897D02*
G03X162587Y172998I-175J-98D01*
G01X161659Y173068D02*
G03X162587Y172998I624J2089D01*
G01X161659Y173068D02*
G03X161402Y172876I-57J-192D01*
G01Y172518*
X160402Y171518D02*
G03X161402Y172518I-0J1000D01*
G01X160402Y171518D02*
X154402D01*
X153402Y172518D02*
G03X154402Y171518I1000J0D01*
G01X153402Y172518D02*
Y174099D01*
G03X153202Y174299I-200J0*
G01X153193*
G03X153087Y174269I-0J-200*
G01X152559Y174118D02*
G03X153087Y174269I0J1000D01*
G01X152559Y174118D02*
X148228D01*
X147228Y175118D02*
G03X148228Y174118I1000J0D01*
G01X147228Y175118D02*
Y177480D01*
X148228Y178480D02*
G03X147228Y177480I0J-1000D01*
G01X148228Y178480D02*
X152559D01*
X153087Y178329D02*
G03X152559Y178480I-528J-849D01*
G01X153087Y178329D02*
G03X153193Y178299I106J170D01*
G01X153302*
G03X153485Y178419I0J200*
G01X154402Y179018D02*
G03X153485Y178419I-0J-1000D01*
G01X154402Y179018D02*
X160402D01*
X161402Y178018D02*
G03X160402Y179018I-1000J0D01*
G01X161402Y178018D02*
Y177468D01*
G03X161602Y177268I200J0*
G01X161708*
G03X161757Y177274I0J200*
G01X162810D02*
G03X161757I-527J-2117D01*
G01X162810D02*
G03X162858Y177268I48J194D01*
G01X162906*
G03X163032Y177313I0J200*
G01X163661Y177535D02*
G03X163032Y177313I0J-1000D01*
G01X163661Y177535D02*
X166417D01*
X167047Y177313D02*
G03X166417Y177535I-630J-778D01*
G01X167047Y177313D02*
G03X167172Y177268I125J155D01*
G01X167858*
G03X167966Y177300I0J200*
G01X168504Y177457D02*
G03X167966Y177300I-0J-1000D01*
G01X168504Y177457D02*
X171654D01*
X172654Y176457D02*
G03X171654Y177457I-1000J-0D01*
G01X172654Y182441D02*
Y179449D01*
X171654Y178449D02*
G03X172654Y179449I-0J1000D01*
G01X171654Y178449D02*
X168504D01*
X167504Y179449D02*
G03X168504Y178449I1000J-0D01*
G01X167504Y179449D02*
Y182441D01*
X168377Y183433D02*
G03X167504Y182441I127J-992D01*
G01X168377Y183433D02*
G03X168551Y183631I-26J198D01*
G01Y186569*
G03X168493Y186710I-200J-0*
G01X167759Y187444*
G03X167417Y187303I-142J-141*
G01Y185630*
X166417Y184630D02*
G03X167417Y185630I0J1000D01*
G01X166417Y184630D02*
X165877D01*
G03X165677Y184430I-0J-200*
G01X165677*
G03X165680Y184394I200J-0*
G01X165714Y184016D02*
G03X165680Y184394I-2131J-0D01*
G01X161452Y184016D02*
G03X165714I2131J-0D01*
G01X161485Y184394D02*
G03X161452Y184016I2098J-378D01*
G01X161485Y184394D02*
G03X161489Y184430I-196J36D01*
G01X161489*
G03X161289Y184630I-200J-0*
G01X160118*
X159118Y185630D02*
G03X160118Y184630I1000J-0D01*
G01X159118Y185630D02*
Y194291D01*
X160118Y195291D02*
G03X159118Y194291I-0J-1000D01*
G01X160118Y195291D02*
X166417D01*
X167417Y194291D02*
G03X166417Y195291I-1000J0D01*
G01X167417Y194291D02*
Y192161D01*
G03X167617Y191961I200J-0*
G01X168071*
X169485Y191375D02*
G03X168071Y191961I-1414J-1414D01*
G01X169485Y191375D02*
X171965Y188894D01*
X172551Y187480D02*
G03X171965Y188894I-2000J0D01*
G01X172551Y187480D02*
Y182926D01*
G03X172568Y182845I200J-0*
G01X172654Y182441D02*
G03X172568Y182845I-1000J-0D01*
G01X149966Y184016D02*
G03X149966I-2131J0D01*
G01X144028Y118465D02*
G03X144028I-2768J0D01*
G01X136036D02*
G03X136036I-2768J0D01*
G01X135747Y124413D02*
G03X139622Y125787I1694J1374D01*
G01X135747Y124413D02*
G03X135592Y124487I-155J-126D01*
G01X134204*
G03X134063Y124429I0J-200*
G01X130959Y121325*
X130039Y120944D02*
G03X130959Y121325I0J1300D01*
G01X130039Y120944D02*
X109133D01*
G03X108977Y120870I-0J-200*
G01X105102Y122244D02*
G03X108977Y120870I2181J0D01*
G01Y123618D02*
G03X105102Y122244I-1694J-1374D01*
G01X108977Y123618D02*
G03X109133Y123544I156J126D01*
G01X129418*
G03X129559Y123603I0J200*
G01X132663Y126707*
X133583Y127087D02*
G03X132663Y126707I-0J-1300D01*
G01X133583Y127087D02*
X135592D01*
G03X135747Y127161I-0J200*
G01X139622Y125787D02*
G03X135747Y127161I-2181J0D01*
G01X140826Y132051D02*
G03X144701Y133425I1694J1374D01*
G01X140826Y132051D02*
G03X140670Y132125I-156J-126D01*
G01X112125*
G03X111970Y132051I-0J-200*
G01X108094Y133425D02*
G03X111970Y132051I2182J0D01*
G01Y134799D02*
G03X108094Y133425I-1694J-1374D01*
G01X111970Y134799D02*
G03X112125Y134725I155J126D01*
G01X140670*
G03X140826Y134799I0J200*
G01X144701Y133425D02*
G03X140826Y134799I-2181J0D01*
G01X100000Y100000D02*
X174803D01*
Y198425*
X100000*
Y100000*
G54D31*
X104390Y189390D03*
Y184567D03*
Y179744D03*
X106949Y178071D03*
X104390Y176398D03*
X106949Y174724D03*
X104390Y173051D03*
X106949Y171378D03*
X104390Y169705D03*
X106949Y168031D03*
X104390Y166358D03*
X106949Y164685D03*
X104390Y163012D03*
X106949Y161339D03*
X104390Y158760D03*
X108622D03*
X110295Y161339D03*
X111969Y158760D03*
X113642Y161339D03*
X115315Y158760D03*
X116988Y161339D03*
X118661Y158760D03*
X120335Y161339D03*
X122008Y158760D03*
X123681Y161339D03*
X126240Y158760D03*
Y163012D03*
X123681Y164685D03*
X126240Y166358D03*
X123681Y168031D03*
X126240Y169705D03*
X123681Y171378D03*
X126240Y173051D03*
X123681Y174724D03*
X126240Y176398D03*
X123681Y178071D03*
X126240Y179744D03*
Y184567D03*
Y189390D03*
X110295Y178071D03*
Y171378D03*
Y164685D03*
X115315D03*
X120335D03*
Y171378D03*
Y178071D03*
X115315D03*
G54D32*
X150394Y168819D03*
Y172559D03*
Y176299D03*
X139370D03*
Y168819D03*
G54D33*
X145197Y154488D03*
Y151929D03*
Y149370D03*
X153465D03*
Y151929D03*
Y154488D03*
G54D34*
X169843Y149961D03*
X167874D03*
X165906D03*
X163937D03*
X161969D03*
Y138937D03*
X163937D03*
X165906D03*
X167874D03*
X169843D03*
X165906Y144449D03*
G54D35*
X163268Y189961D03*
X151457D03*
G54D36*
X165039Y174961D03*
Y164724D03*
G54D37*
X140948Y183150D03*
X132448D03*
G54D38*
X161378Y141496D02*
X170039D01*
Y146729*
X169367Y147402*
X161378*
Y141496*
Y147402*
X161575Y141496D02*
Y147402D01*
X161772Y141496D02*
Y147402D01*
X161969Y141496D02*
Y147402D01*
X162165Y141496D02*
Y147402D01*
X162362Y141496D02*
Y147402D01*
X162559Y141496D02*
Y147402D01*
X162756Y141496D02*
Y147402D01*
X162953Y141496D02*
Y147402D01*
X163150Y141496D02*
Y147402D01*
X163346Y141496D02*
Y147402D01*
X163543Y141496D02*
Y147402D01*
X163740Y141496D02*
Y147402D01*
X163937Y141496D02*
Y147402D01*
X164134Y141496D02*
Y147402D01*
X164331Y141496D02*
Y147402D01*
X164528Y141496D02*
Y147402D01*
X164724Y141496D02*
Y147402D01*
X164921Y141496D02*
Y147402D01*
X165118Y141496D02*
Y147402D01*
X165315Y141496D02*
Y147402D01*
X165512Y141496D02*
Y147402D01*
X165709Y141496D02*
Y147402D01*
X165906Y141496D02*
Y147402D01*
X166102Y141496D02*
Y147402D01*
X166299Y141496D02*
Y147402D01*
X166496Y141496D02*
Y147402D01*
X166693Y141496D02*
Y147402D01*
X166890Y141496D02*
Y147402D01*
X167087Y141496D02*
Y147402D01*
X167283Y141496D02*
Y147402D01*
X167480Y141496D02*
Y147402D01*
X167677Y141496D02*
Y147402D01*
X167874Y141496D02*
Y147402D01*
X168071Y141496D02*
Y147402D01*
X168268Y141496D02*
Y147402D01*
X168465Y141496D02*
Y147402D01*
X168661Y141496D02*
Y147402D01*
X168858Y141496D02*
Y147402D01*
X169055Y141496D02*
Y147402D01*
X169252Y141496D02*
Y147402D01*
X169449Y141496D02*
Y147320D01*
X169646Y141496D02*
Y147123D01*
X169843Y141496D02*
Y146926D01*
G54D39*
X150551Y149409D02*
X153425D01*
X145197Y151929D02*
X147874D01*
X150394Y149409*
G54D40*
X123681Y161339D02*
Y161181D01*
X128622*
G74*
X0Y0D02*
M02*
