*
*
G04 PADS VX.2.3 Build Number: 9191294 generated Gerber (RS-274-X) file*
G04 PC Version=2.1*
*
%IN "layoutfile-20190621.pcb"*%
*
%MOIN*%
*
%FSLAX35Y35*%
*
*
*
*
G04 PC Standard Apertures*
*
*
G04 Thermal Relief Aperture macro.*
%AMTER*
1,1,$1,0,0*
1,0,$1-$2,0,0*
21,0,$3,$4,0,0,45*
21,0,$3,$4,0,0,135*
%
*
*
G04 Annular Aperture macro.*
%AMANN*
1,1,$1,0,0*
1,0,$2,0,0*
%
*
*
G04 Odd Aperture macro.*
%AMODD*
1,1,$1,0,0*
1,0,$1-0.005,0,0*
%
*
*
G04 PC Custom Aperture Macros*
*
*
*
*
*
*
G04 PC Aperture Table*
*
%ADD010C,0.001*%
%ADD011C,0.05906*%
%ADD012C,0.031*%
%ADD013C,0.03937*%
%ADD014R,0.02362X0.04331*%
%ADD015R,0.0315X0.02992*%
%ADD016R,0.0315X0.02756*%
%ADD017R,0.035X0.04*%
%ADD018R,0.04X0.035*%
%ADD019R,0.06X0.055*%
%ADD020R,0.03937X0.03543*%
%ADD021R,0.01575X0.07087*%
%ADD022R,0.05512X0.07087*%
%ADD023R,0.07087X0.09843*%
%ADD024C,0.02165*%
%ADD025C,0.006*%
%ADD026C,0.01*%
%ADD027C,0.02*%
%ADD028C,0.01969*%
%ADD029C,0.02362*%
%ADD030C,0.004*%
*
*
*
*
G04 PC Circuitry*
G04 Layer Name layoutfile-20190621.pcb - circuitry*
%LPD*%
*
*
G04 PC Custom Flashes*
G04 Layer Name layoutfile-20190621.pcb - flashes*
%LPD*%
*
*
G04 PC Circuitry*
G04 Layer Name layoutfile-20190621.pcb - circuitry*
%LPD*%
*
G54D10*
G54D11*
G01X122441Y104134D03*
X132441D03*
X142441D03*
X152441D03*
G54D12*
X139764Y143465D03*
Y138465D03*
Y133465D03*
Y128465D03*
Y123465D03*
X134764D03*
Y128465D03*
Y133465D03*
Y138465D03*
Y143465D03*
G54D13*
X133268Y118465D03*
X137264Y148465D03*
X141260Y118465D03*
G54D14*
X163110Y137323D03*
X166850D03*
X170591D03*
Y126299D03*
X163110D03*
G54D15*
X148858Y168622D03*
Y174606D03*
G54D16*
X154331Y168622D03*
X164567D03*
G54D17*
X162709Y157323D03*
X168709D03*
X162942Y117162D03*
X168942D03*
G54D18*
X162520Y144205D03*
Y150205D03*
X157323Y134063D03*
Y128063D03*
G54D19*
X123465Y173507D03*
Y165007D03*
G54D20*
X169567Y150197D03*
Y143504D03*
G54D21*
X150590Y181457D03*
X153150D03*
X155709D03*
X158268D03*
X160827D03*
G54D22*
X142323Y182441D03*
X169094D03*
X151378Y193071D03*
X159252D03*
G54D23*
X141929D03*
X169094D03*
G54D24*
X147835Y184016D03*
X163583D03*
G54D25*
X152441Y104488D02*
X148425Y108504D01*
Y127598*
X145039Y130984*
X137244*
X134764Y133465*
X151614Y110079D02*
X151631Y130394D01*
X146040Y135984*
X137244*
X134764Y138465*
X107283Y122244D02*
X102638Y126890D01*
Y173150*
X122126Y114606D02*
X144213D01*
X145551Y115945*
Y126654*
X143740Y128465*
X139764*
X122126Y114606D02*
X107756Y128976D01*
Y166614*
X109724Y168583*
X162942Y117162D02*
X163110Y117331D01*
X128110Y128386D02*
X134685D01*
X134764Y128465*
X128110Y128386D02*
X116378Y140118D01*
Y155984*
X134764Y123465D02*
X128465D01*
X113622Y138307*
Y153701*
X139764Y123465D02*
X137441Y125787D01*
X158020Y127362D02*
X157323Y128060D01*
Y128063*
X163110Y126299D02*
X162047Y127362D01*
X170591Y126299D02*
Y130630D01*
X169409Y131811*
X164370*
X163110Y133071*
Y137323*
X105276Y140709D02*
Y175315D01*
X104213Y176378*
X102598*
X110276Y133425D02*
Y165630D01*
X112362Y167717*
Y172677*
X109370Y175669*
X130669Y138268D02*
X134567D01*
X134764Y138465*
X130669Y138268D02*
X128976Y139961D01*
Y147913*
X130906Y149843*
Y166260*
X128976Y168189*
Y174528*
X128898Y174606*
X127165Y133189D02*
X134488D01*
X134764Y133465*
X127165Y133189D02*
X118819Y141535D01*
Y168701*
X142520Y133425D02*
X142480Y133465D01*
X139764*
Y138465D02*
X137520Y140709D01*
X157323Y138898D02*
X157244Y138976D01*
X142559Y143504D02*
X151181D01*
X153701Y146024*
Y156102*
X159213Y161614*
X168709*
X139764Y143465D02*
X142520D01*
X142559Y143504*
X162323Y144205D02*
X157606D01*
X156063Y145748*
Y151890*
X162520Y144205D02*
X162323D01*
X158740Y156181D02*
X158748Y156189D01*
X161575*
X162709Y157323*
X168709Y160118D02*
Y161614D01*
X167953Y168583D02*
X164567D01*
Y168622*
G54D26*
X163110Y117331D02*
Y126299D01*
X162047Y127362D02*
X158020D01*
X157323Y134063D02*
Y138898D01*
X170591Y137323D02*
X170630Y137362D01*
Y142441*
X169567Y143504*
X163110Y137323D02*
X163150Y137362D01*
Y141220*
X162323Y142047*
Y144205*
X169567Y150197D02*
Y156465D01*
X168709Y157323*
Y160118D02*
X169331Y161173D01*
Y161496*
X168709Y157323D02*
Y160118D01*
X150303Y181013D02*
X147626Y178336D01*
Y173374*
X150502*
X150917Y173790*
Y180799*
X150303*
Y181013*
X150303*
X149303Y180013D02*
X150917D01*
X148303Y179013D02*
X150917D01*
X147626Y178013D02*
X150917D01*
X147626Y177013D02*
X150917D01*
X147626Y176013D02*
X150917D01*
X147626Y175013D02*
X150917D01*
X147626Y174013D02*
X150917D01*
X148303Y173374D02*
Y179013D01*
X149303Y173374D02*
Y180013D01*
X150303Y173374D02*
Y180799D01*
G54D27*
X150551Y149409D02*
Y158583D01*
X158307Y166339*
Y171181*
X162283Y175157*
X148858Y168608D02*
X136929Y168661D01*
X132717Y172874*
X148858Y168608D02*
X154331Y168584D01*
X154606Y168583*
X125236Y106929D02*
X124529Y106222D01*
X119646Y106929D02*
X120353Y106222D01*
G54D28*
X128386Y160984D02*
X127488D01*
X123465Y165007*
X109300Y112423D03*
Y107423D03*
X104300D03*
Y112423D03*
X119300D03*
X114300D03*
Y107423D03*
X159300D03*
X169300D03*
X164300D03*
X109300Y117423D03*
X104300D03*
X114300D03*
X159300Y122423D03*
X154300Y142423D03*
X124300Y152423D03*
X113622Y153701D03*
X144300Y157423D03*
X118819Y168701D03*
X139300Y172423D03*
X102598Y176378D03*
X102638Y173150D03*
X112598Y177953D03*
X109370Y175669D03*
G54D29*
X151614Y110079D03*
X107283Y122244D03*
X169055Y121969D03*
X137441Y125787D03*
X105276Y140709D03*
X110276Y133425D03*
X137520Y140709D03*
X142520Y133425D03*
X157244Y138976D03*
X132047Y146811D03*
X124291Y147323D03*
X133504Y150866D03*
X142559Y143504D03*
X150551Y149409D03*
X145197Y146969D03*
X156063Y151890D03*
X116378Y155984D03*
X128386Y160984D03*
X136181Y162165D03*
X133504Y158150D03*
X158740Y156181D03*
X169331Y161496D03*
X109724Y168583D03*
X115354Y166890D03*
X162087Y165039D03*
X167953Y168583D03*
X167913Y164685D03*
X104409Y182283D03*
X117874Y177677D03*
X119252Y174409D03*
X128898Y174606D03*
X126220Y182165D03*
X132717Y172874D03*
X162283Y175157D03*
X104291Y187087D03*
X126220Y187165D03*
X132362Y188937D03*
X132913Y195748D03*
X130906Y192874D03*
X136732Y195984D03*
X135551Y192756D03*
G54D30*
X165714Y184016D02*
G75*
G03X165714I-2131J0D01*
G01X173603Y197025D02*
G03X173403Y197225I-200J0D01*
G01X125400*
G03X125200Y197025I0J-200*
G01Y178976*
X125000Y178776D02*
G03X125200Y178976I0J200D01*
G01X125000Y178776D02*
X105472D01*
X105272Y178976D02*
G03X105472Y178776I200J0D01*
G01X105272Y178976D02*
Y189915D01*
G03X105072Y190115I-200J-0*
G01X101400*
G03X101200Y189915I0J-200*
G01Y178204*
G03X101510Y178037I200J0*
G01X104041Y177741D02*
G03X101510Y178037I-1443J-1363D01*
G01X104041Y177741D02*
G03X104186Y177678I145J137D01*
G01X104213*
X105132Y177297D02*
G03X104213Y177678I-919J-919D01*
G01X105132Y177297D02*
X106195Y176234D01*
X106576Y175315D02*
G03X106195Y176234I-1300J-0D01*
G01X106576Y175315D02*
Y167755D01*
G03X106917Y167614I200J0*
G01X107498Y168194*
G03X107556Y168336I-142J142*
X107555Y168356I-200J-0*
G01X107543Y168583D02*
G03X107555Y168356I2181J-0D01*
G01X110767Y170499D02*
G03X107543Y168583I-1043J-1916D01*
G01X110767Y170499D02*
G03X111062Y170674I95J175D01*
G01Y172056*
G03X111004Y172197I-200J-0*
G01X109574Y173627*
G03X109426Y173686I-142J-141*
G01X107386Y175669D02*
G03X109426Y173686I1984J0D01*
G01X111354Y175669D02*
G03X107386I-1984J0D01*
G01X111354Y175613D02*
G03Y175669I-1984J56D01*
G01Y175613D02*
G03X111353Y175607I199J-6D01*
X111412Y175466I200J0*
G01X113281Y173596*
X113662Y172677D02*
G03X113281Y173596I-1300J0D01*
G01X113662Y172677D02*
Y167717D01*
X113281Y166797D02*
G03X113662Y167717I-919J920D01*
G01X113281Y166797D02*
X111634Y165150D01*
G03X111576Y165009I142J-141*
G01Y154868*
G03X111945Y154761I200J-0*
G01X113966Y155655D02*
G03X111945Y154761I-344J-1954D01*
G01X113966Y155655D02*
G03X114201Y155852I35J197D01*
G01X114201D02*
G03X114200Y155863I-200J0D01*
G01X114197Y155984D02*
G03X114200Y155863I2181J0D01*
G01X114197Y155984D02*
X114197D01*
X117240Y157988D02*
G03X114197Y155984I-862J-2004D01*
G01X117240Y157988D02*
G03X117519Y158172I79J184D01*
G01Y167113*
G03X117456Y167258I-200J0*
G01X116835Y168701D02*
G03X117456Y167258I1984J-0D01*
G01X120789Y168934D02*
G03X116835Y168701I-1970J-233D01*
G01X120789Y168934D02*
G03X120988Y168758I199J24D01*
G01X120988D02*
X126465D01*
X127308Y168295D02*
G03X126465Y168757I-843J-538D01*
G01X127308Y168295D02*
G03X127676Y168403I168J108D01*
G01Y172696*
G03X127596Y172856I-200J-0*
G01X126717Y174606D02*
G03X127596Y172856I2181J0D01*
G01X131074Y174754D02*
G03X126717Y174606I-2176J-148D01*
G01X131074Y174754D02*
G03X131394Y174609I199J14D01*
G01X134731Y173709D02*
G03X131395Y174609I-2014J-835D01*
G01X134731Y173709D02*
G03X134775Y173644I185J77D01*
G01X137703Y170716*
G03X137844Y170657I141J141*
G01X146309Y170620*
G03X146472Y170703I1J200*
G01X147283Y171118D02*
G03X146472Y170703I0J-1000D01*
G01X147283Y171118D02*
X150433D01*
X151258Y170684D02*
G03X150433Y171118I-825J-566D01*
G01X151258Y170684D02*
G03X151422Y170597I165J113D01*
G01X151856Y170595*
G03X152007Y170662I1J200*
G01X152756Y171000D02*
G03X152007Y170662I-0J-1000D01*
G01X152756Y171000D02*
X155906D01*
X156073Y170986D02*
G03X155906Y171000I-167J-986D01*
G01X156073Y170986D02*
G03X156307Y171183I34J197D01*
G01X156893Y172595D02*
G03X156307Y171183I1414J-1414D01*
G01X156893Y172595D02*
X160225Y175928D01*
G03X160269Y175992I-141J141*
G01X164465Y175157D02*
G03X160269Y175992I-2182J0D01*
G01X163118Y173143D02*
G03X164465Y175157I-835J2014D01*
G01X163118Y173143D02*
G03X163054Y173099I77J-185D01*
G01X160366Y170411*
G03X160307Y170270I141J-141*
G01Y166339*
X159721Y164924D02*
G03X160307Y166339I-1414J1415D01*
G01X159721Y164924D02*
X152610Y157813D01*
G03X152551Y157671I141J-142*
G01Y157274*
G03X152893Y157133I200J0*
G01X158293Y162533*
X159213Y162914D02*
G03X158293Y162533I-0J-1300D01*
G01X159213Y162914D02*
X167584D01*
G03X167731Y162978I-0J200*
G01X171512Y161496D02*
G03X167731Y162978I-2181J0D01*
G01X171142Y160281D02*
G03X171512Y161496I-1811J1215D01*
G01X171142Y160281D02*
G03X171108Y160170I166J-111D01*
X171167Y160029I200J0*
G01X171459Y159323D02*
G03X171167Y160029I-1000J-0D01*
G01X171459Y159323D02*
Y155323D01*
X171132Y154584D02*
G03X171459Y155323I-673J739D01*
G01X171132Y154584D02*
G03X171067Y154436I135J-148D01*
G01Y153169*
G03X171267Y152969I200J-0*
G01X171535*
X172535Y151969D02*
G03X171535Y152969I-1000J-0D01*
G01X172535Y151969D02*
Y148425D01*
X171535Y147425D02*
G03X172535Y148425I0J1000D01*
G01X171535Y147425D02*
X167598D01*
X166598Y148425D02*
G03X167598Y147425I1000J0D01*
G01X166598Y148425D02*
Y151969D01*
X167598Y152969D02*
G03X166598Y151969I0J-1000D01*
G01X167598Y152969D02*
X167867D01*
G03X168067Y153169I-0J200*
G01Y154123*
G03X167867Y154323I-200J-0*
G01X166959*
X165959Y155323D02*
G03X166959Y154323I1000J-0D01*
G01X165959Y155323D02*
Y159323D01*
X166207Y159982D02*
G03X165959Y159323I752J-659D01*
G01X166207Y159982D02*
G03X166257Y160114I-150J132D01*
X166057Y160314I-200J0*
G01X159834*
G03X159693Y160256I-0J-200*
G01X155059Y155622*
G03X155001Y155481I142J-141*
G01Y154109*
G03X155273Y153923I200J0*
G01X158244Y151890D02*
G03X155273Y153923I-2181J-0D01*
G01X157437Y150196D02*
G03X158244Y151890I-1374J1694D01*
G01X157437Y150196D02*
G03X157363Y150041I126J-155D01*
G01Y146369*
G03X157422Y146228I200J0*
G01X158086Y145563*
G03X158228Y145505I142J142*
G01X159320*
G03X159520Y145705I-0J200*
G01Y145955*
X160520Y146955D02*
G03X159520Y145955I-0J-1000D01*
G01X160520Y146955D02*
X164520D01*
X165520Y145955D02*
G03X164520Y146955I-1000J-0D01*
G01X165520Y145955D02*
Y142455D01*
X164793Y141493D02*
G03X165520Y142455I-273J962D01*
G01X164793Y141493D02*
G03X164648Y141300I55J-193D01*
G01X164648*
G03Y141291I200J0*
G01X164650Y141220D02*
G03X164648Y141291I-1500J0D01*
G01X164650Y141220D02*
Y140550D01*
G03X164757Y140373I200J0*
G01X165291Y139488D02*
G03X164757Y140373I-1000J0D01*
G01X165291Y139488D02*
Y135157D01*
X164557Y134193D02*
G03X165291Y135157I-266J964D01*
G01X164557Y134193D02*
G03X164410Y134001I53J-192D01*
G01Y133692*
G03X164469Y133551I200J0*
G01X164850Y133170*
G03X164991Y133111I141J141*
G01X169409*
X170329Y132730D02*
G03X169409Y133111I-920J-919D01*
G01X170329Y132730D02*
X171510Y131549D01*
X171891Y130630D02*
G03X171510Y131549I-1300J-0D01*
G01X171891Y130630D02*
Y129621D01*
G03X172037Y129429I200J0*
G01X172772Y128465D02*
G03X172037Y129429I-1000J-0D01*
G01X172772Y128465D02*
Y124134D01*
X171772Y123134D02*
G03X172772Y124134I-0J1000D01*
G01X171772Y123134D02*
X169409D01*
X168409Y124134D02*
G03X169409Y123134I1000J-0D01*
G01X168409Y124134D02*
Y128465D01*
X169144Y129429D02*
G03X168409Y128465I265J-964D01*
G01X169144Y129429D02*
G03X169291Y129621I-53J192D01*
G01Y130009*
G03X169232Y130150I-200J-0*
G01X168930Y130452*
G03X168788Y130511I-142J-141*
G01X164370*
X163451Y130892D02*
G03X164370Y130511I919J919D01*
G01X163451Y130892D02*
X162191Y132152D01*
X161810Y133071D02*
G03X162191Y132152I1300J-0D01*
G01X161810Y133071D02*
Y134001D01*
G03X161663Y134193I-200J-0*
G01X160929Y135157D02*
G03X161663Y134193I1000J0D01*
G01X160929Y135157D02*
Y139488D01*
X161489Y140386D02*
G03X160929Y139488I440J-898D01*
G01X161489Y140386D02*
G03X161600Y140565I-89J179D01*
X161542Y140707I-200J0*
G01X161262Y140987*
X160996Y141348D02*
G03X161262Y140987I1327J699D01*
G01X160996Y141348D02*
G03X160819Y141455I-177J-93D01*
G01X160520*
X159520Y142455D02*
G03X160520Y141455I1000J-0D01*
G01X159520Y142455D02*
Y142705D01*
G03X159320Y142905I-200J-0*
G01X157606*
X156687Y143285D02*
G03X157606Y142905I919J920D01*
G01X156687Y143285D02*
X155144Y144829D01*
X154948Y145080D02*
G03X155144Y144829I1115J668D01*
G01X154948Y145080D02*
G03X154633Y145117I-172J-102D01*
G01X154620Y145104D02*
G03X154633Y145117I-919J920D01*
G01X154620Y145104D02*
X152100Y142585D01*
X151181Y142204D02*
G03X152100Y142585I0J1300D01*
G01X151181Y142204D02*
X144408D01*
G03X144253Y142130I0J-200*
G01X141616Y141537D02*
G03X144253Y142130I943J1967D01*
G01X141616Y141537D02*
G03X141402Y141510I-86J-180D01*
G01X140826Y141146D02*
G03X141402Y141510I-1062J2319D01*
G01X140826Y141146D02*
G03X140709Y140965I83J-181D01*
X140826Y140783I200J-0*
G01X142314Y138465D02*
G03X140826Y140783I-2550J-0D01*
G01X142146Y137556D02*
G03X142314Y138465I-2382J909D01*
G01X142146Y137556D02*
G03X142133Y137484I187J-72D01*
X142333Y137284I200J0*
G01X146040*
X146959Y136904D02*
G03X146040Y137284I-919J-920D01*
G01X146959Y136904D02*
X152550Y131313D01*
X152931Y130394D02*
G03X152550Y131313I-1300J-0D01*
G01X152931Y130394D02*
X152916Y111927D01*
G03X152990Y111772I200J-0*
G01X153795Y110079D02*
G03X152990Y111772I-2181J-0D01*
G01Y108386D02*
G03X153795Y110079I-1376J1693D01*
G01X152990Y108386D02*
G03X152916Y108231I126J-155D01*
X153084Y108034I200J0*
G01X156394Y104134D02*
G03X153084Y108034I-3953J-0D01*
G01X155416Y101532D02*
G03X156394Y104134I-2975J2602D01*
G01X155416Y101532D02*
G03X155367Y101400I151J-132D01*
X155567Y101200I200J0*
G01X173403*
G03X173603Y101400I0J200*
G01Y197025*
X149515Y101400D02*
G03X149466Y101532I-200J0D01*
G01X148488Y104134D02*
G03X149466Y101532I3953J-0D01*
G01X148934Y105958D02*
G03X148488Y104134I3507J-1824D01*
G01X148934Y105958D02*
G03X148957Y106051I-177J93D01*
G01X148957*
G03X148898Y106192I-200J-0*
G01X147506Y107585*
X147125Y108504D02*
G03X147506Y107585I1300J-0D01*
G01X147125Y108504D02*
Y115343D01*
G03X146742Y115423I-200J0*
G01X146470Y115026D02*
G03X146742Y115423I-919J919D01*
G01X146470Y115026D02*
X145132Y113687D01*
X144213Y113306D02*
G03X145132Y113687I-0J1300D01*
G01X144213Y113306D02*
X122126D01*
X121206Y113688D02*
G03X122126Y113306I920J918D01*
G01X121206Y113688D02*
X106837Y128057D01*
X106456Y128976D02*
G03X106837Y128057I1300J0D01*
G01X106456Y128976D02*
Y138539D01*
G03X106174Y138721I-200J-0*
G01X104233Y138793D02*
G03X106174Y138721I1043J1916D01*
G01X104233Y138793D02*
G03X103938Y138617I-95J-176D01*
G01Y127511*
G03X103996Y127370I200J0*
G01X106895Y124471*
G03X107057Y124413I142J141*
G01X109465Y122244D02*
G03X107057Y124413I-2182J0D01*
G01X105102Y122244D02*
G03X109465I2181J0D01*
G01X105114Y122470D02*
G03X105102Y122244I2169J-226D01*
G01X105114Y122470D02*
G03X105057Y122632I-199J21D01*
G01X101719Y125971*
X101565Y126155D02*
G03X101719Y125971I1073J735D01*
G01X101565Y126155D02*
G03X101200Y126042I-165J-113D01*
G01Y101400*
G03X101400Y101200I200J0*
G01X119315*
G03X119515Y101400I-0J200*
X119466Y101532I-200J0*
G01X118488Y104134D02*
G03X119466Y101532I3953J-0D01*
G01X126394Y104134D02*
G03X118488I-3953J-0D01*
G01X125416Y101532D02*
G03X126394Y104134I-2975J2602D01*
G01X125416Y101532D02*
G03X125367Y101400I151J-132D01*
X125567Y101200I200J0*
G01X129315*
G03X129515Y101400I-0J200*
X129466Y101532I-200J0*
G01X128488Y104134D02*
G03X129466Y101532I3953J-0D01*
G01X136394Y104134D02*
G03X128488I-3953J-0D01*
G01X135416Y101532D02*
G03X136394Y104134I-2975J2602D01*
G01X135416Y101532D02*
G03X135367Y101400I151J-132D01*
X135567Y101200I200J0*
G01X139315*
G03X139515Y101400I-0J200*
X139466Y101532I-200J0*
G01X138488Y104134D02*
G03X139466Y101532I3953J-0D01*
G01X146394Y104134D02*
G03X138488I-3953J-0D01*
G01X145416Y101532D02*
G03X146394Y104134I-2975J2602D01*
G01X145416Y101532D02*
G03X145367Y101400I151J-132D01*
X145567Y101200I200J0*
G01X149315*
G03X149515Y101400I-0J200*
G01X155101Y166044D02*
G03X154901Y166244I-200J0D01*
G01X152756*
X152050Y166536D02*
G03X152756Y166244I706J708D01*
G01X152050Y166536D02*
G03X151909Y166595I-142J-141D01*
G01X151387Y166597*
G03X151227Y166518I-1J-200*
G01X150433Y166126D02*
G03X151227Y166518I0J1000D01*
G01X150433Y166126D02*
X147283D01*
X146475Y166537D02*
G03X147283Y166126I808J589D01*
G01X146475Y166537D02*
G03X146314Y166620I-162J-117D01*
G01X136920Y166661*
X135515Y167247D02*
G03X136920Y166661I1414J1414D01*
G01X135515Y167247D02*
X131946Y170816D01*
G03X131882Y170859I-141J-142*
G01X130665Y172135D02*
G03X131882Y170859I2052J739D01*
G01X130665Y172135D02*
G03X130276Y172067I-189J-68D01*
G01Y168810*
G03X130335Y168669I200J0*
G01X131825Y167179*
X132206Y166260D02*
G03X131825Y167179I-1300J-0D01*
G01X132206Y166260D02*
Y149843D01*
X131825Y148923D02*
G03X132206Y149843I-919J920D01*
G01X131825Y148923D02*
X130335Y147433D01*
G03X130276Y147292I141J-141*
G01Y140582*
G03X130335Y140441I200J-0*
G01X131149Y139626*
G03X131291Y139568I142J142*
G01X132342*
G03X132518Y139673I0J200*
G01X134521Y141003D02*
G03X132518Y139673I243J-2538D01*
G01X134521Y141003D02*
G03X134702Y141202I-19J199D01*
G01Y143740*
X134902Y143940D02*
G03X134702Y143740I-0J-200D01*
G01X134902Y143940D02*
X137098D01*
G03X137292Y144091I0J200*
G01X138152Y145440D02*
G03X137292Y144091I1612J-1975D01*
G01X138152Y145440D02*
G03X138225Y145595I-127J155D01*
X137974Y145789I-200J0*
G01X134495Y148465D02*
G03X137974Y145789I2769J-0D01*
G01X140032Y148465D02*
G03X134495I-2768J-0D01*
G01X138978Y146291D02*
G03X140032Y148465I-1714J2174D01*
G01X138978Y146291D02*
G03X138902Y146134I124J-157D01*
X139150Y145940I200J-0*
G01X141346Y145465D02*
G03X139150Y145940I-1582J-2000D01*
G01X141346Y145465D02*
G03X141561Y145444I124J156D01*
G01X144253Y144878D02*
G03X141561Y145444I-1694J-1374D01*
G01X144253Y144878D02*
G03X144408Y144804I155J126D01*
G01X150560*
G03X150701Y144863I-0J200*
G01X152342Y146504*
G03X152401Y146645I-141J141*
G01Y147692*
G03X152062Y147837I-200J0*
G01X148370Y149409D02*
G03X152062Y147837I2181J0D01*
G01X148536Y150244D02*
G03X148370Y149409I2015J-835D01*
G01X148536Y150244D02*
G03X148551Y150320I-185J76D01*
G01Y158583*
X149137Y159997D02*
G03X148551Y158583I1414J-1414D01*
G01X149137Y159997D02*
X155043Y165903D01*
G03X155101Y166044I-142J141*
G01X133818Y135965D02*
G03X133701Y136146I-200J-0D01*
G01X132757Y136891D02*
G03X133701Y136146I2007J1574D01*
G01X132757Y136891D02*
G03X132600Y136968I-157J-123D01*
G01X130669*
X129749Y137349D02*
G03X130669Y136968I920J919D01*
G01X129749Y137349D02*
X128057Y139041D01*
X127676Y139961D02*
G03X128057Y139041I1300J-0D01*
G01X127676Y139961D02*
Y147913D01*
X128057Y148833D02*
G03X127676Y147913I919J-920D01*
G01X128057Y148833D02*
X129547Y150322D01*
G03X129605Y150464I-142J142*
G01Y158833*
X129605D02*
G03X129320Y159013I-200J-0D01*
G01X127516Y158984D02*
G03X129320Y159013I870J2000D01*
G01X127516Y158984D02*
G03X127441Y159001I-80J-183D01*
G01X126085Y159581D02*
G03X127441Y159001I1403J1403D01*
G01X126085Y159581D02*
X124467Y161199D01*
G03X124326Y161257I-141J-142*
G01X120465*
X120343Y161265D02*
G03X120465Y161257I122J992D01*
G01X120343Y161265D02*
G03X120119Y161066I-24J-199D01*
G01Y142157*
G03X120177Y142015I200J-0*
G01X127645Y134548*
G03X127787Y134489I142J141*
G01X132301*
G03X132480Y134600I0J200*
G01X133701Y135783D02*
G03X132480Y134600I1063J-2318D01*
G01X133701Y135783D02*
G03X133818Y135965I-83J182D01*
G01X165714Y184016D02*
G03X165714I-2131J0D01*
G01X160055Y185000D02*
Y177913D01*
X159055Y176913D02*
G03X160055Y177913I0J1000D01*
G01X159055Y176913D02*
X157480D01*
X157070Y177001D02*
G03X157480Y176913I410J912D01*
G01X157070Y177001D02*
G03X156906I-82J-182D01*
G01X156496Y176913D02*
G03X156906Y177001I0J1000D01*
G01X156496Y176913D02*
X154921D01*
X154511Y177001D02*
G03X154921Y176913I410J912D01*
G01X154511Y177001D02*
G03X154347I-82J-182D01*
G01X153937Y176913D02*
G03X154347Y177001I-0J1000D01*
G01X153937Y176913D02*
X152617D01*
G03X152417Y176713I0J-200*
G01Y173790*
X151978Y172729D02*
G03X152417Y173790I-1061J1061D01*
G01X151978Y172729D02*
X151562Y172313D01*
X150502Y171874D02*
G03X151562Y172313I-0J1500D01*
G01X150502Y171874D02*
X147626D01*
X146126Y173374D02*
G03X147626Y171874I1500J0D01*
G01X146126Y173374D02*
Y178336D01*
X146565Y179397D02*
G03X146126Y178336I1061J-1061D01*
G01X146565Y179397D02*
X148744Y181576D01*
G03X148803Y181717I-141J141*
G01Y181815*
G03X148537Y182004I-200J-0*
G01X145703Y184016D02*
G03X148537Y182004I2132J-0D01*
G01X148992Y185805D02*
G03X145703Y184016I-1157J-1789D01*
G01X148992Y185805D02*
G03X149218Y185811I109J168D01*
G01X149803Y186000D02*
G03X149218Y185811I0J-1000D01*
G01X149803Y186000D02*
X151378D01*
X151788Y185912D02*
G03X151378Y186000I-410J-912D01*
G01X151788Y185912D02*
G03X151952I82J182D01*
G01X152362Y186000D02*
G03X151952Y185912I0J-1000D01*
G01X152362Y186000D02*
X153937D01*
X154347Y185912D02*
G03X153937Y186000I-410J-912D01*
G01X154347Y185912D02*
G03X154511I82J182D01*
G01X154921Y186000D02*
G03X154511Y185912I0J-1000D01*
G01X154921Y186000D02*
X156496D01*
X156906Y185912D02*
G03X156496Y186000I-410J-912D01*
G01X156906Y185912D02*
G03X157070I82J182D01*
G01X157480Y186000D02*
G03X157070Y185912I0J-1000D01*
G01X157480Y186000D02*
X159055D01*
X160055Y185000D02*
G03X159055Y186000I-1000J-0D01*
G01X172772Y139488D02*
Y135157D01*
X171772Y134157D02*
G03X172772Y135157I-0J1000D01*
G01X171772Y134157D02*
X169409D01*
X168409Y135157D02*
G03X169409Y134157I1000J0D01*
G01X168409Y135157D02*
Y139488D01*
X168916Y140358D02*
G03X168409Y139488I493J-870D01*
G01X168916Y140358D02*
G03X169018Y140532I-98J174D01*
X168818Y140732I-200J0*
G01X167598*
X166598Y141732D02*
G03X167598Y140732I1000J0D01*
G01X166598Y141732D02*
Y145276D01*
X167598Y146276D02*
G03X166598Y145276I0J-1000D01*
G01X167598Y146276D02*
X171535D01*
X172535Y145276D02*
G03X171535Y146276I-1000J-0D01*
G01X172535Y145276D02*
Y141732D01*
X172198Y140983D02*
G03X172535Y141732I-663J749D01*
G01X172198Y140983D02*
G03X172130Y140833I132J-150D01*
G01Y140550*
G03X172237Y140373I200J0*
G01X172772Y139488D02*
G03X172237Y140373I-1000J0D01*
G01X165692Y119162D02*
Y115162D01*
X164692Y114162D02*
G03X165692Y115162I-0J1000D01*
G01X164692Y114162D02*
X161192D01*
X160192Y115162D02*
G03X161192Y114162I1000J0D01*
G01X160192Y115162D02*
Y119162D01*
X161192Y120162D02*
G03X160192Y119162I-0J-1000D01*
G01X161192Y120162D02*
X161410D01*
G03X161610Y120362I0J200*
G01Y123052*
G03X161497Y123232I-200J-0*
G01X160929Y124134D02*
G03X161497Y123232I1000J-0D01*
G01X160929Y124134D02*
Y125662D01*
G03X160729Y125862I-200J0*
G01X160331*
G03X160163Y125771I0J-200*
G01X159323Y125313D02*
G03X160163Y125771I-0J1000D01*
G01X159323Y125313D02*
X155323D01*
X154323Y126313D02*
G03X155323Y125313I1000J-0D01*
G01X154323Y126313D02*
Y129813D01*
X155323Y130813D02*
G03X154323Y129813I-0J-1000D01*
G01X155323Y130813D02*
X159323D01*
X160323Y129813D02*
G03X159323Y130813I-1000J-0D01*
G01X160323Y129813D02*
Y129062D01*
G03X160523Y128862I200J0*
G01X160889*
G03X161062Y128963I-0J200*
G01X161929Y129465D02*
G03X161062Y128963I0J-1000D01*
G01X161929Y129465D02*
X164291D01*
X165291Y128465D02*
G03X164291Y129465I-1000J-0D01*
G01X165291Y128465D02*
Y124134D01*
X164724Y123232D02*
G03X165291Y124134I-433J902D01*
G01X164724Y123232D02*
G03X164610Y123052I86J-180D01*
G01Y120356*
G03X164791Y120157I200J0*
G01X165692Y119162D02*
G03X164791Y120157I-1000J0D01*
G01X160323Y135813D02*
Y132313D01*
X159323Y131313D02*
G03X160323Y132313I-0J1000D01*
G01X159323Y131313D02*
X155323D01*
X154323Y132313D02*
G03X155323Y131313I1000J-0D01*
G01X154323Y132313D02*
Y135813D01*
X155323Y136813D02*
G03X154323Y135813I-0J-1000D01*
G01X155323Y136813D02*
X155623D01*
G03X155823Y137013I-0J200*
G01Y137232*
G03X155759Y137379I-200J0*
G01X155063Y138976D02*
G03X155759Y137379I2181J0D01*
G01X159425Y138976D02*
G03X155063I-2181J0D01*
G01X158873Y137526D02*
G03X159425Y138976I-1629J1450D01*
G01X158873Y137526D02*
G03X158823Y137393I150J-133D01*
G01Y137013*
G03X159023Y136813I200J0*
G01X159323*
X160323Y135813D02*
G03X159323Y136813I-1000J-0D01*
G01X100000Y100000D02*
X174803D01*
Y198425*
X100000*
Y100000*
G74*
X0Y0D02*
M02*
