M48
;FILE_FORMAT=2:4
INCH,LZ
FMAT,2
ICI,OFF
;TYPE=PLATED
T1C.01181
T2C.02362
T3C.0315
%
M72
G90
G93X0Y0
T1C.01181F095S3
X01093Y010742
X01043Y010742
X01143Y010742
X01043Y011242
X01193Y011242
X01143Y011242
X01093Y011242
X01093Y011742
X01043Y011742
X01143Y011742
X010728Y012224
X011028Y013343
X010528Y014071
X012429Y014732
X01243Y015242
X011362Y01537
X011638Y015598
X011535Y016689
X010972Y016858
X011882Y01687
X010264Y017315
X011925Y017441
X010937Y017567
X01026Y017638
X011787Y017768
X01126Y017795
X012622Y018217
X010441Y018228
X010429Y018709
X012622Y018717
X013673Y019598
X013291Y019575
X013091Y019287
X013555Y019276
X013236Y018894
X01289Y017461
X013272Y017287
X01393Y017242
X013618Y016217
X012839Y016098
X01335Y015815
X01443Y015742
X01335Y015087
X015055Y014941
X01452Y014697
X013205Y014681
X014256Y01435
X013752Y014071
X014252Y013343
X013744Y012579
X015161Y011008
X01693Y010742
X01643Y010742
X01593Y010742
X016906Y012197
X01593Y012242
X015724Y013898
X01543Y014242
X015606Y015189
X015874Y015618
X016933Y01615
X016791Y016469
X016209Y016504
X016795Y016858
X016228Y017516
T2C.02362F197S55
X014783Y018402
X016358Y018402
T3C.0315F197S55
X012244Y010413
X013244Y010413
X014244Y010413
X015244Y010413
M30
