*
*
G04 PADS VX.2.3 Build Number: 9191294 generated Gerber (RS-274-X) file*
G04 PC Version=2.1*
*
%IN "SENTIO32 schematic V3-2"*%
*
%MOIN*%
*
%FSLAX35Y35*%
*
*
*
*
G04 PC Standard Apertures*
*
*
G04 Thermal Relief Aperture macro.*
%AMTER*
1,1,$1,0,0*
1,0,$1-$2,0,0*
21,0,$3,$4,0,0,45*
21,0,$3,$4,0,0,135*
%
*
*
G04 Annular Aperture macro.*
%AMANN*
1,1,$1,0,0*
1,0,$2,0,0*
%
*
*
G04 Odd Aperture macro.*
%AMODD*
1,1,$1,0,0*
1,0,$1-0.005,0,0*
%
*
*
G04 PC Custom Aperture Macros*
*
*
*
*
*
*
G04 PC Aperture Table*
*
%ADD010C,0.001*%
%ADD027C,0.00394*%
%ADD030C,0.006*%
%ADD034C,0.004*%
%ADD057C,0.00787*%
%ADD064C,0.00787*%
%ADD065C,0.005*%
*
*
*
*
G04 PC Circuitry*
G04 Layer Name SENTIO32 schematic V3-2 - circuitry*
%LPD*%
*
*
G04 PC Custom Flashes*
G04 Layer Name SENTIO32 schematic V3-2 - flashes*
%LPD*%
*
*
G04 PC Circuitry*
G04 Layer Name SENTIO32 schematic V3-2 - circuitry*
%LPD*%
*
G54D10*
G54D27*
G01X141220Y166063D02*
X147520D01*
Y171417*
X141220*
Y166063*
X143583Y166772D02*
Y170709D01*
Y168740D02*
X145354Y166969D01*
Y170610*
X143681Y168937*
X119449Y145283D02*
Y133656D01*
X110749Y133653D02*
G75*
G03X119449Y133660I4349J634D01*
G01X110748Y133656D02*
Y145283D01*
X119448Y145287D02*
G03X110747Y145279I-4350J-635D01*
G01X112079Y139449D02*
X118079D01*
X166417Y152765D02*
Y140913D01*
X172717*
Y152765*
X166417*
G54D30*
X164469Y154449D02*
X160754D01*
X160751Y160353D02*
G03X160756Y154448I925J-2951D01*
G01X160754Y160354D02*
X164469D01*
X166869Y154449D02*
X170806D01*
X170805Y154448D02*
G03Y160355I-1260J2954D01*
G01X170806Y160354D02*
X166869D01*
X165394Y145965D02*
Y142250D01*
X159489Y142247D02*
G03X165394Y142252I2952J925D01*
G01X159488Y142250D02*
Y145965D01*
X165394Y148365D02*
Y152302D01*
Y152301D02*
G03X159488I-2953J-1260D01*
G01Y152302D02*
Y148365D01*
G54D34*
X142598Y166181D02*
Y171299D01*
X141417Y166969D02*
X142205Y166181D01*
X141417Y168150D02*
X142500Y167067D01*
X141319Y169429D02*
X142402Y168346D01*
X141417Y170512D02*
X142402Y169528D01*
X141811Y171299D02*
X142500Y170610D01*
G54D57*
X160354Y129409D02*
X171772D01*
Y134921*
X160354*
Y129409*
G54D64*
X106299Y198386D02*
Y182441D01*
X132087Y178307D02*
X129921D01*
X139370Y196811D02*
X111811D01*
X139370Y198386D02*
Y182441D01*
X115748Y178307D02*
X113583D01*
X133858Y196811D02*
X106299D01*
G54D65*
X169906Y148145D02*
X168843D01*
G03Y147318I-20J-413*
G01X170418*
Y146452D02*
G03Y147318I16J433D01*
G01Y146452D02*
X168725D01*
G03Y145586I69J-433*
G01X169867*
X124123Y163632D02*
Y161289D01*
X124009Y160820*
X123782Y160507*
X123441Y160351*
X123214*
X122873Y160507*
X122645Y160820*
X122532Y161289*
Y163632*
X121509Y163007D02*
X121282Y163164D01*
X120941Y163632*
Y160351*
X119918Y163007D02*
X119691Y163164D01*
X119350Y163632*
Y160351*
X126660Y170379D02*
Y167098D01*
Y170379D02*
X125183D01*
X126660Y168816D02*
X125751D01*
X123024Y170379D02*
X124160Y168191D01*
X122456*
X123024Y170379D02*
Y167098D01*
X157457Y169275D02*
X159048Y165994D01*
Y169275D02*
X157457D01*
X159048Y165994D02*
X157457D01*
X156207Y169275D02*
X154957D01*
X155639Y168025*
X155298*
X155071Y167869*
X154957Y167713*
X154843Y167244*
Y166932*
X154957Y166463*
X155184Y166150*
X155525Y165994*
X155866*
X156207Y166150*
X156321Y166307*
X156434Y166619*
X158647Y123615D02*
X155365D01*
X158647D02*
Y124638D01*
X158490Y124979*
X158334Y125093*
X158022Y125206*
X157709*
X157397Y125093*
X157240Y124979*
X157084Y124638*
Y123615*
Y124411D02*
X155365Y125206D01*
X158647Y126456D02*
Y127706D01*
X157397Y127024*
Y127365*
X157240Y127593*
X157084Y127706*
X156615Y127820*
X156303*
X155834Y127706*
X155522Y127479*
X155365Y127138*
Y126797*
X155522Y126456*
X155678Y126343*
X155990Y126229*
X166722Y119001D02*
Y115720D01*
Y119001D02*
X165699D01*
X165358Y118845*
X165244Y118688*
X165131Y118376*
Y118063*
X165244Y117751*
X165358Y117595*
X165699Y117438*
X166722*
X165926D02*
X165131Y115720D01*
X162744Y118532D02*
X162858Y118845D01*
X163199Y119001*
X163426*
X163767Y118845*
X163994Y118376*
X164108Y117595*
Y116813*
X163994Y116188*
X163767Y115876*
X163426Y115720*
X163312*
X162972Y115876*
X162744Y116188*
X162631Y116657*
Y116813*
X162744Y117282*
X162972Y117595*
X163312Y117751*
X163426*
X163767Y117595*
X163994Y117282*
X164108Y116813*
X163672Y163754D02*
X163785Y164067D01*
X164012Y164379*
X164240Y164535*
X164694*
X164922Y164379*
X165149Y164067*
X165262Y163754*
X165376Y163285*
Y162504*
X165262Y162035*
X165149Y161723*
X164922Y161410*
X164694Y161254*
X164240*
X164012Y161410*
X163785Y161723*
X163672Y162035*
X162422Y164535D02*
X161172D01*
X161853Y163285*
X161512*
X161285Y163129*
X161172Y162973*
X161058Y162504*
Y162192*
X161172Y161723*
X161399Y161410*
X161740Y161254*
X162081*
X162422Y161410*
X162535Y161567*
X162649Y161879*
X158057Y146474D02*
X158370Y146360D01*
X158682Y146133*
X158838Y145906*
Y145451*
X158682Y145224*
X158370Y144997*
X158057Y144883*
X157588Y144770*
X156807*
X156338Y144883*
X156026Y144997*
X155713Y145224*
X155557Y145451*
Y145906*
X155713Y146133*
X156026Y146360*
X156338Y146474*
X158838Y148633D02*
X156651Y147497D01*
Y149201*
X158838Y148633D02*
X155557D01*
X116263Y152629D02*
X116575Y152516D01*
X116888Y152288*
X117044Y152061*
Y151607*
X116888Y151379*
X116575Y151152*
X116263Y151038*
X115794Y150925*
X115013*
X114544Y151038*
X114232Y151152*
X113919Y151379*
X113763Y151607*
Y152061*
X113919Y152288*
X114232Y152516*
X114544Y152629*
X117044Y154220D02*
X116888Y153879D01*
X116575Y153766*
X116263*
X115950Y153879*
X115794Y154107*
X115638Y154561*
X115482Y154902*
X115169Y155129*
X114857Y155243*
X114388*
X114075Y155129*
X113919Y155016*
X113763Y154675*
Y154220*
X113919Y153879*
X114075Y153766*
X114388Y153652*
X114857*
X115169Y153766*
X115482Y153993*
X115638Y154334*
X115794Y154788*
X115950Y155016*
X116263Y155129*
X116575*
X116888Y155016*
X117044Y154675*
Y154220*
X172750Y166286D02*
X169469D01*
Y167650*
X172750Y168900D02*
Y170150D01*
X171500Y169468*
Y169809*
X171344Y170036*
X171187Y170150*
X170719Y170263*
X170406*
X169937Y170150*
X169625Y169922*
X169469Y169582*
Y169241*
X169625Y168900*
X169781Y168786*
X170094Y168672*
G74*
X0Y0D02*
M02*
