*
*
G04 PADS VX.2.3 Build Number: 9191294 generated Gerber (RS-274-X) file*
G04 PC Version=2.1*
*
%IN "layoutfile-20190621.pcb"*%
*
%MOIN*%
*
%FSLAX35Y35*%
*
*
*
*
G04 PC Standard Apertures*
*
*
G04 Thermal Relief Aperture macro.*
%AMTER*
1,1,$1,0,0*
1,0,$1-$2,0,0*
21,0,$3,$4,0,0,45*
21,0,$3,$4,0,0,135*
%
*
*
G04 Annular Aperture macro.*
%AMANN*
1,1,$1,0,0*
1,0,$2,0,0*
%
*
*
G04 Odd Aperture macro.*
%AMODD*
1,1,$1,0,0*
1,0,$1-0.005,0,0*
%
*
*
G04 PC Custom Aperture Macros*
*
*
*
*
*
*
G04 PC Aperture Table*
*
%ADD010C,0.001*%
%ADD030C,0.004*%
%ADD038C,0.00394*%
%ADD041R,0.02575X0.02575*%
%ADD042C,0.06906*%
%ADD043R,0.05331X0.03362*%
%ADD044C,0.04937*%
%ADD045R,0.03756X0.02575*%
%ADD046R,0.01984X0.03756*%
%ADD047R,0.0415X0.03992*%
%ADD048R,0.07299X0.09661*%
%ADD049R,0.03756X0.0415*%
%ADD050R,0.045X0.05*%
%ADD051R,0.05X0.045*%
%ADD052R,0.07X0.065*%
%ADD053R,0.065X0.07*%
%ADD054C,0.03165*%
*
*
*
*
G04 PC Circuitry*
G04 Layer Name layoutfile-20190621.pcb - circuitry*
%LPD*%
*
*
G04 PC Custom Flashes*
G04 Layer Name layoutfile-20190621.pcb - flashes*
%LPD*%
*
*
G04 PC Circuitry*
G04 Layer Name layoutfile-20190621.pcb - circuitry*
%LPD*%
*
G54D10*
G54D30*
G01X100000Y100000D02*
X174803D01*
Y198425*
X100000*
Y100000*
G54D38*
X160878Y141299D02*
X160888Y141221D01*
X160919Y141148*
X160967Y141085*
X161030Y141037*
X161103Y141006*
X161181Y140996*
X170236*
X170315Y141006*
X170388Y141037*
X170451Y141085*
X170499Y141148*
X170529Y141221*
X170539Y141299*
Y146811*
X170529Y146889*
X170499Y146963*
X170451Y147025*
X169663Y147813*
X169600Y147861*
X169527Y147891*
X169449Y147902*
X161181*
X161103Y147891*
X161030Y147861*
X160967Y147813*
X160919Y147750*
X160888Y147677*
X160878Y147598*
Y141299*
X160984Y141071D02*
Y147826D01*
X161181Y140996D02*
Y147902D01*
X161378Y140996D02*
Y147902D01*
X161575Y140996D02*
Y147902D01*
X161772Y140996D02*
Y147902D01*
X161969Y140996D02*
Y147902D01*
X162165Y140996D02*
Y147902D01*
X162362Y140996D02*
Y147902D01*
X162559Y140996D02*
Y147902D01*
X162756Y140996D02*
Y147902D01*
X162953Y140996D02*
Y147902D01*
X163150Y140996D02*
Y147902D01*
X163346Y140996D02*
Y147902D01*
X163543Y140996D02*
Y147902D01*
X163740Y140996D02*
Y147902D01*
X163937Y140996D02*
Y147902D01*
X164134Y140996D02*
Y147902D01*
X164331Y140996D02*
Y147902D01*
X164528Y140996D02*
Y147902D01*
X164724Y140996D02*
Y147902D01*
X164921Y140996D02*
Y147902D01*
X165118Y140996D02*
Y147902D01*
X165315Y140996D02*
Y147902D01*
X165512Y140996D02*
Y147902D01*
X165709Y140996D02*
Y147902D01*
X165906Y140996D02*
Y147902D01*
X166102Y140996D02*
Y147902D01*
X166299Y140996D02*
Y147902D01*
X166496Y140996D02*
Y147902D01*
X166693Y140996D02*
Y147902D01*
X166890Y140996D02*
Y147902D01*
X167087Y140996D02*
Y147902D01*
X167283Y140996D02*
Y147902D01*
X167480Y140996D02*
Y147902D01*
X167677Y140996D02*
Y147902D01*
X167874Y140996D02*
Y147902D01*
X168071Y140996D02*
Y147902D01*
X168268Y140996D02*
Y147902D01*
X168465Y140996D02*
Y147902D01*
X168661Y140996D02*
Y147902D01*
X168858Y140996D02*
Y147902D01*
X169055Y140996D02*
Y147902D01*
X169252Y140996D02*
Y147902D01*
X169449Y140996D02*
Y147902D01*
X169646Y140996D02*
Y147826D01*
X169843Y140996D02*
Y147633D01*
X170039Y140996D02*
Y147437D01*
X170236Y140996D02*
Y147240D01*
X170433Y141071D02*
Y147043D01*
G54D41*
X104390Y189390D03*
Y184567D03*
Y179744D03*
X106949Y178071D03*
X104390Y176398D03*
X106949Y174724D03*
X104390Y173051D03*
X106949Y171378D03*
X104390Y169705D03*
X106949Y168031D03*
X104390Y166358D03*
X106949Y164685D03*
X104390Y163012D03*
X106949Y161339D03*
X104390Y158760D03*
X108622D03*
X110295Y161339D03*
X111969Y158760D03*
X113642Y161339D03*
X115315Y158760D03*
X116988Y161339D03*
X118661Y158760D03*
X120335Y161339D03*
X122008Y158760D03*
X123681Y161339D03*
X126240Y158760D03*
Y163012D03*
X123681Y164685D03*
X126240Y166358D03*
X123681Y168031D03*
X126240Y169705D03*
X123681Y171378D03*
X126240Y173051D03*
X123681Y174724D03*
X126240Y176398D03*
X123681Y178071D03*
X126240Y179744D03*
Y184567D03*
Y189390D03*
X110295Y178071D03*
Y171378D03*
Y164685D03*
X115315D03*
X120335D03*
Y171378D03*
Y178071D03*
X115315D03*
G54D42*
X122441Y104134D03*
X132441D03*
X142441D03*
X152441D03*
G54D43*
X150394Y168819D03*
Y172559D03*
Y176299D03*
X139370D03*
Y168819D03*
G54D44*
X133268Y118465D03*
X137264Y148465D03*
X141260Y118465D03*
G54D45*
X145197Y154488D03*
Y151929D03*
Y149370D03*
X153465D03*
Y151929D03*
Y154488D03*
G54D46*
X169843Y149961D03*
X167874D03*
X165906D03*
X163937D03*
X161969D03*
Y138937D03*
X163937D03*
X165906D03*
X167874D03*
X169843D03*
X165906Y144449D03*
G54D47*
X170079Y174961D03*
Y180945D03*
G54D48*
X163268Y189961D03*
X151457D03*
G54D49*
X165039Y174961D03*
Y164724D03*
G54D50*
X162748Y156181D03*
X168748D03*
X139496Y154409D03*
X133496D03*
X146504Y161772D03*
X140504D03*
G54D51*
X169055Y126055D03*
Y132055D03*
X162480Y126055D03*
Y132055D03*
X133386Y168157D03*
Y162157D03*
X155827Y132016D03*
Y126016D03*
G54D52*
X157402Y166768D03*
Y175268D03*
G54D53*
X140948Y183150D03*
X132448D03*
G54D54*
X147835Y184016D03*
X163583D03*
X0Y0D02*
M02*
