*
*
G04 PADS VX.2.3 Build Number: 9191294 generated Gerber (RS-274-X) file*
G04 PC Version=2.1*
*
%IN "SENTIO32 schematic V3-2"*%
*
%MOIN*%
*
%FSLAX35Y35*%
*
*
*
*
G04 PC Standard Apertures*
*
*
G04 Thermal Relief Aperture macro.*
%AMTER*
1,1,$1,0,0*
1,0,$1-$2,0,0*
21,0,$3,$4,0,0,45*
21,0,$3,$4,0,0,135*
%
*
*
G04 Annular Aperture macro.*
%AMANN*
1,1,$1,0,0*
1,0,$2,0,0*
%
*
*
G04 Odd Aperture macro.*
%AMODD*
1,1,$1,0,0*
1,0,$1-0.005,0,0*
%
*
*
G04 PC Custom Aperture Macros*
*
*
*
*
*
*
G04 PC Aperture Table*
*
%ADD010C,0.001*%
%ADD027C,0.00394*%
%ADD041R,0.02575X0.02575*%
%ADD042C,0.06906*%
%ADD043R,0.05331X0.03362*%
%ADD044O,0.06118X0.10842*%
%ADD045C,0.03165*%
%ADD046C,0.04937*%
%ADD047R,0.03756X0.02575*%
%ADD048R,0.01984X0.03756*%
%ADD049R,0.0415X0.03992*%
%ADD050R,0.07299X0.09661*%
%ADD051R,0.03756X0.0415*%
%ADD052R,0.03992X0.0415*%
%ADD053R,0.03008X0.03008*%
%ADD054R,0.045X0.05*%
%ADD055R,0.05X0.045*%
%ADD056R,0.07X0.065*%
*
*
*
*
G04 PC Circuitry*
G04 Layer Name SENTIO32 schematic V3-2 - circuitry*
%LPD*%
*
*
G04 PC Custom Flashes*
G04 Layer Name SENTIO32 schematic V3-2 - flashes*
%LPD*%
*
*
G04 PC Circuitry*
G04 Layer Name SENTIO32 schematic V3-2 - circuitry*
%LPD*%
*
G54D10*
G54D27*
G01X160878Y141299D02*
X160888Y141221D01*
X160919Y141148*
X160967Y141085*
X161030Y141037*
X161103Y141006*
X161181Y140996*
X170236*
X170315Y141006*
X170388Y141037*
X170451Y141085*
X170499Y141148*
X170529Y141221*
X170539Y141299*
Y146811*
X170529Y146889*
X170499Y146963*
X170451Y147025*
X169663Y147813*
X169600Y147861*
X169527Y147891*
X169449Y147902*
X161181*
X161103Y147891*
X161030Y147861*
X160967Y147813*
X160919Y147750*
X160888Y147677*
X160878Y147598*
Y141299*
X160984Y141071D02*
Y147826D01*
X161181Y140996D02*
Y147902D01*
X161378Y140996D02*
Y147902D01*
X161575Y140996D02*
Y147902D01*
X161772Y140996D02*
Y147902D01*
X161969Y140996D02*
Y147902D01*
X162165Y140996D02*
Y147902D01*
X162362Y140996D02*
Y147902D01*
X162559Y140996D02*
Y147902D01*
X162756Y140996D02*
Y147902D01*
X162953Y140996D02*
Y147902D01*
X163150Y140996D02*
Y147902D01*
X163346Y140996D02*
Y147902D01*
X163543Y140996D02*
Y147902D01*
X163740Y140996D02*
Y147902D01*
X163937Y140996D02*
Y147902D01*
X164134Y140996D02*
Y147902D01*
X164331Y140996D02*
Y147902D01*
X164528Y140996D02*
Y147902D01*
X164724Y140996D02*
Y147902D01*
X164921Y140996D02*
Y147902D01*
X165118Y140996D02*
Y147902D01*
X165315Y140996D02*
Y147902D01*
X165512Y140996D02*
Y147902D01*
X165709Y140996D02*
Y147902D01*
X165906Y140996D02*
Y147902D01*
X166102Y140996D02*
Y147902D01*
X166299Y140996D02*
Y147902D01*
X166496Y140996D02*
Y147902D01*
X166693Y140996D02*
Y147902D01*
X166890Y140996D02*
Y147902D01*
X167087Y140996D02*
Y147902D01*
X167283Y140996D02*
Y147902D01*
X167480Y140996D02*
Y147902D01*
X167677Y140996D02*
Y147902D01*
X167874Y140996D02*
Y147902D01*
X168071Y140996D02*
Y147902D01*
X168268Y140996D02*
Y147902D01*
X168465Y140996D02*
Y147902D01*
X168661Y140996D02*
Y147902D01*
X168858Y140996D02*
Y147902D01*
X169055Y140996D02*
Y147902D01*
X169252Y140996D02*
Y147902D01*
X169449Y140996D02*
Y147902D01*
X169646Y140996D02*
Y147826D01*
X169843Y140996D02*
Y147633D01*
X170039Y140996D02*
Y147437D01*
X170236Y140996D02*
Y147240D01*
X170433Y141071D02*
Y147043D01*
G54D41*
X103799Y163524D03*
Y158701D03*
Y153878D03*
X106358Y152205D03*
X103799Y150531D03*
X106358Y148858D03*
X103799Y147185D03*
X106358Y145512D03*
X103799Y143839D03*
X106358Y142165D03*
X103799Y140492D03*
X106358Y138819D03*
X103799Y137146D03*
X106358Y135472D03*
X103799Y132894D03*
X108031D03*
X109705Y135472D03*
X111378Y132894D03*
X113051Y135472D03*
X114724Y132894D03*
X116398Y135472D03*
X118071Y132894D03*
X119744Y135472D03*
X121417Y132894D03*
X123091Y135472D03*
X125650Y132894D03*
Y137146D03*
X123091Y138819D03*
X125650Y140492D03*
X123091Y142165D03*
X125650Y143839D03*
X123091Y145512D03*
X125650Y147185D03*
X123091Y148858D03*
X125650Y150531D03*
X123091Y152205D03*
X125650Y153878D03*
Y158701D03*
Y163524D03*
X109705Y152205D03*
Y145512D03*
Y138819D03*
X114724D03*
X119744D03*
Y145512D03*
Y152205D03*
X114724D03*
G54D42*
X117756Y114331D03*
X127756D03*
X137756D03*
X147756D03*
G54D43*
X150394Y168819D03*
Y172559D03*
Y176299D03*
X139370D03*
Y168819D03*
G54D44*
X110236Y189528D03*
X135433D03*
G54D45*
X114961Y180866D03*
X130709D03*
G54D46*
X133976Y122402D03*
X137972Y152402D03*
X141969Y122402D03*
G54D47*
X142953Y156850D03*
Y154291D03*
Y151732D03*
X151220D03*
Y154291D03*
Y156850D03*
G54D48*
X169843Y149961D03*
X167874D03*
X165906D03*
X163937D03*
X161969D03*
Y138937D03*
X163937D03*
X165906D03*
X167874D03*
X169843D03*
X165906Y144449D03*
G54D49*
X170906Y169449D03*
Y175433D03*
G54D50*
X163898Y187992D03*
X152086D03*
G54D51*
X164685Y176457D03*
Y166220D03*
G54D52*
X135157Y168898D03*
X129173D03*
G54D53*
X163268Y132008D03*
Y128780D03*
G54D54*
X162709Y157992D03*
X168709D03*
X141882Y162598D03*
X147882D03*
G54D55*
X169055Y126055D03*
Y132055D03*
X162402Y115622D03*
Y121622D03*
X133976Y155740D03*
Y161740D03*
G54D56*
X157362Y166807D03*
Y175307D03*
X123858Y186775D03*
Y178275D03*
X0Y0D02*
M02*
