*
*
G04 PADS VX.2.3 Build Number: 9191294 generated Gerber (RS-274-X) file*
G04 PC Version=2.1*
*
%IN "layoutfile-20190621.pcb"*%
*
%MOIN*%
*
%FSLAX35Y35*%
*
*
*
*
G04 PC Standard Apertures*
*
*
G04 Thermal Relief Aperture macro.*
%AMTER*
1,1,$1,0,0*
1,0,$1-$2,0,0*
21,0,$3,$4,0,0,45*
21,0,$3,$4,0,0,135*
%
*
*
G04 Annular Aperture macro.*
%AMANN*
1,1,$1,0,0*
1,0,$2,0,0*
%
*
*
G04 Odd Aperture macro.*
%AMODD*
1,1,$1,0,0*
1,0,$1-0.005,0,0*
%
*
*
G04 PC Custom Aperture Macros*
*
*
*
*
*
*
G04 PC Aperture Table*
*
%ADD010C,0.001*%
%ADD025C,0.006*%
%ADD030C,0.004*%
%ADD038C,0.00394*%
%ADD040C,0.00787*%
%ADD062C,0.005*%
%ADD063C,0.00787*%
*
*
*
*
G04 PC Circuitry*
G04 Layer Name layoutfile-20190621.pcb - circuitry*
%LPD*%
*
*
G04 PC Custom Flashes*
G04 Layer Name layoutfile-20190621.pcb - flashes*
%LPD*%
*
*
G04 PC Circuitry*
G04 Layer Name layoutfile-20190621.pcb - circuitry*
%LPD*%
*
G54D10*
G54D25*
G01X164469Y154016D02*
X160321D01*
Y160354*
X164469*
X166869Y153976D02*
X171063D01*
Y160354*
X166869*
X165827Y145965D02*
Y141817D01*
X159488*
Y145965*
X165866Y148365D02*
Y152559D01*
X159488*
Y148365*
X154370Y132263D02*
Y137362D01*
X160276*
Y132263*
X154370Y133063D02*
Y124764D01*
X160276*
Y133063*
X164742Y114209D02*
X159643D01*
Y120115*
X164742*
X163942Y114209D02*
X172241D01*
Y120115*
X163942*
G54D30*
X157677Y166063D02*
Y171181D01*
X156496Y166850D02*
X157283Y166063D01*
X156496Y168031D02*
X157579Y166949D01*
X156398Y169311D02*
X157480Y168228D01*
X156496Y170394D02*
X157480Y169409D01*
X156890Y171181D02*
X157579Y170492D01*
X100000Y100000D02*
X174803D01*
Y198425*
X100000*
Y100000*
G54D38*
X156299Y165945D02*
X162598D01*
Y171299*
X156299*
Y165945*
X158661Y166654D02*
Y170591D01*
Y168622D02*
X160433Y166850D01*
Y170492*
X158760Y168819*
X127835Y177598D02*
Y160688D01*
X119134*
Y177598*
X127835*
X120465Y169252D02*
X126465D01*
X166417Y152765D02*
Y140913D01*
X172717*
Y152765*
X166417*
G54D40*
X161142Y129055D02*
X172559D01*
Y134567*
X161142*
Y129055*
G54D62*
X169906Y148145D02*
X168843D01*
G75*
G03Y147318I-20J-413D01*
G01X170418*
Y146452D02*
G03Y147318I16J433D01*
G01Y146452D02*
X168725D01*
G03Y145586I69J-433*
G01X169867*
X118047Y126954D02*
Y124610D01*
X117933Y124141*
X117706Y123829*
X117365Y123672*
X117138*
X116797Y123829*
X116569Y124141*
X116456Y124610*
Y126954*
X115433Y126329D02*
X115206Y126485D01*
X114865Y126954*
Y123672*
X113842Y126329D02*
X113615Y126485D01*
X113274Y126954*
Y123672*
X144969Y167485D02*
X141688D01*
X144969D02*
Y168963D01*
X143407Y167485D02*
Y168395D01*
X144969Y171122D02*
X142782Y169985D01*
Y171690*
X144969Y171122D02*
X141688D01*
X170257Y170920D02*
X171848Y167638D01*
Y170920D02*
X170257D01*
X171848Y167638D02*
X170257D01*
X169007Y170920D02*
X167757D01*
X168439Y169670*
X168098*
X167871Y169513*
X167757Y169357*
X167644Y168888*
Y168576*
X167757Y168107*
X167985Y167795*
X168325Y167638*
X168666*
X169007Y167795*
X169121Y167951*
X169235Y168263*
X156541Y157975D02*
X156655Y158287D01*
X156882Y158600*
X157109Y158756*
X157564*
X157791Y158600*
X158018Y158287*
X158132Y157975*
X158246Y157506*
Y156725*
X158132Y156256*
X158018Y155943*
X157791Y155631*
X157564Y155475*
X157109*
X156882Y155631*
X156655Y155943*
X156541Y156256*
X155291Y158756D02*
X154041D01*
X154723Y157506*
X154382*
X154155Y157350*
X154041Y157193*
X153927Y156725*
Y156412*
X154041Y155943*
X154268Y155631*
X154609Y155475*
X154950*
X155291Y155631*
X155405Y155787*
X155518Y156100*
X157511Y149301D02*
X157824Y149187D01*
X158136Y148960*
X158292Y148733*
Y148278*
X158136Y148051*
X157824Y147823*
X157511Y147710*
X157042Y147596*
X156261*
X155792Y147710*
X155480Y147823*
X155167Y148051*
X155011Y148278*
Y148733*
X155167Y148960*
X155480Y149187*
X155792Y149301*
X158292Y151460D02*
X156105Y150323D01*
Y152028*
X158292Y151460D02*
X155011D01*
X117058Y163811D02*
X117371Y163697D01*
X117683Y163470*
X117840Y163243*
Y162788*
X117683Y162561*
X117371Y162334*
X117058Y162220*
X116590Y162106*
X115808*
X115340Y162220*
X115027Y162334*
X114715Y162561*
X114558Y162788*
Y163243*
X114715Y163470*
X115027Y163697*
X115340Y163811*
X117840Y165402D02*
X117683Y165061D01*
X117371Y164947*
X117058*
X116746Y165061*
X116590Y165288*
X116433Y165743*
X116277Y166084*
X115965Y166311*
X115652Y166424*
X115183*
X114871Y166311*
X114715Y166197*
X114558Y165856*
Y165402*
X114715Y165061*
X114871Y164947*
X115183Y164834*
X115652*
X115965Y164947*
X116277Y165174*
X116433Y165515*
X116590Y165970*
X116746Y166197*
X117058Y166311*
X117371*
X117683Y166197*
X117840Y165856*
Y165402*
X172069Y160621D02*
X168788D01*
Y161984*
X172069Y163234D02*
Y164484D01*
X170819Y163803*
Y164143*
X170663Y164371*
X170507Y164484*
X170038Y164598*
X169726*
X169257Y164484*
X168944Y164257*
X168788Y163916*
Y163575*
X168944Y163234*
X169101Y163121*
X169413Y163007*
X158787Y119750D02*
X155505D01*
X158787D02*
Y120773D01*
X158630Y121114*
X158474Y121228*
X158162Y121341*
X157849*
X157537Y121228*
X157380Y121114*
X157224Y120773*
Y119750*
Y120546D02*
X155505Y121341D01*
X158787Y122591D02*
Y123841D01*
X157537Y123160*
Y123500*
X157380Y123728*
X157224Y123841*
X156755Y123955*
X156443*
X155974Y123841*
X155662Y123614*
X155505Y123273*
Y122932*
X155662Y122591*
X155818Y122478*
X156130Y122364*
X163888Y113347D02*
Y110066D01*
Y113347D02*
X162865D01*
X162524Y113191*
X162410Y113035*
X162297Y112722*
Y112410*
X162410Y112097*
X162524Y111941*
X162865Y111785*
X163888*
X163092D02*
X162297Y110066D01*
X159910Y112878D02*
X160024Y113191D01*
X160365Y113347*
X160592*
X160933Y113191*
X161160Y112722*
X161274Y111941*
Y111160*
X161160Y110535*
X160933Y110222*
X160592Y110066*
X160479*
X160138Y110222*
X159910Y110535*
X159797Y111003*
Y111160*
X159910Y111628*
X160138Y111941*
X160479Y112097*
X160592*
X160933Y111941*
X161160Y111628*
X161274Y111160*
G54D63*
X139173Y201535D02*
Y185591D01*
X164961Y181457D02*
X162795D01*
X172244Y199961D02*
X144685D01*
X172244Y201535D02*
Y185591D01*
X148622Y181457D02*
X146457D01*
X166732Y199961D02*
X139173D01*
G74*
X0Y0D02*
M02*
