*
*
G04 PADS VX.2.3 Build Number: 9191294 generated Gerber (RS-274-X) file*
G04 PC Version=2.1*
*
%IN "layoutfile-20190621.pcb"*%
*
%MOIN*%
*
%FSLAX35Y35*%
*
*
*
*
G04 PC Standard Apertures*
*
*
G04 Thermal Relief Aperture macro.*
%AMTER*
1,1,$1,0,0*
1,0,$1-$2,0,0*
21,0,$3,$4,0,0,45*
21,0,$3,$4,0,0,135*
%
*
*
G04 Annular Aperture macro.*
%AMANN*
1,1,$1,0,0*
1,0,$2,0,0*
%
*
*
G04 Odd Aperture macro.*
%AMODD*
1,1,$1,0,0*
1,0,$1-0.005,0,0*
%
*
*
G04 PC Custom Aperture Macros*
*
*
*
*
*
*
G04 PC Aperture Table*
*
%ADD010C,0.001*%
%ADD025C,0.006*%
%ADD026C,0.01*%
%ADD030C,0.004*%
%ADD038C,0.00394*%
%ADD040C,0.00787*%
*
*
*
*
G04 PC Circuitry*
G04 Layer Name layoutfile-20190621.pcb - circuitry*
%LPD*%
*
*
G04 PC Custom Flashes*
G04 Layer Name layoutfile-20190621.pcb - flashes*
%LPD*%
*
*
G04 PC Circuitry*
G04 Layer Name layoutfile-20190621.pcb - circuitry*
%LPD*%
*
G54D10*
G54D25*
G01X164509Y159488D02*
X160361D01*
Y153150*
X164509*
X166909Y159528D02*
X171102D01*
Y153150*
X166909*
X165748Y127816D02*
Y123668D01*
X172087*
Y127816*
X165709Y130216D02*
Y134409D01*
X172087*
Y130216*
X159173Y127816D02*
Y123668D01*
X165512*
Y127816*
X159134Y130216D02*
Y134409D01*
X165512*
Y130216*
X137696Y151457D02*
X142795D01*
Y157362*
X137696*
X138496Y151457D02*
X130197D01*
Y157362*
X138496*
X136339Y166357D02*
Y171457D01*
X130433*
Y166357*
X136339Y167157D02*
Y158858D01*
X130433*
Y167157*
X144704Y158819D02*
X149803D01*
Y164724*
X144704*
X145504Y158819D02*
X137205D01*
Y164724*
X145504*
X158780Y130216D02*
Y135315D01*
X152874*
Y130216*
X158780Y131016D02*
Y122717D01*
X152874*
Y131016*
G54D26*
X121260Y113383D02*
X121714Y113696D01*
X122396Y114633*
Y108071*
X165246Y189646D02*
G75*
G03X165246I-1979J0D01*
G01X157372D02*
G03X157372I-1979J0D01*
G03X157372I-1979J0*
G01X169173Y184094D02*
X144370D01*
Y200197*
X169173*
Y184094*
X168819Y197835D02*
X144764D01*
X171967Y192987D02*
Y187362D01*
X169921Y190175D02*
X174012D01*
X139134Y191671D02*
X143225D01*
G54D30*
X167598Y171614D02*
X162480D01*
X166811Y172795D02*
X167598Y172008D01*
X165630Y172795D02*
X166713Y171713D01*
X164350Y172894D02*
X165433Y171811D01*
X163268Y172795D02*
X164252Y171811D01*
X162480Y172402D02*
X163169Y171713D01*
X100000Y100000D02*
X174803D01*
Y198425*
X100000*
Y100000*
G54D38*
X151575Y155866D02*
X149921D01*
Y155865*
X148543*
Y155866*
X147087*
Y147992*
X151575*
Y155866*
X148253Y154605D02*
G03X148253I-370J0D01*
G01X145354Y156339D02*
G03X145354I-472J0D01*
G01X170630Y137362D02*
X160787D01*
Y151535*
X170630*
Y137362*
X169843Y151929D02*
X170630Y152717D01*
X169055*
X169843Y151929*
X167717Y172992D02*
Y166693D01*
X162362*
Y172992*
X167717*
X167008Y170630D02*
X163071D01*
X165039D02*
X166811Y168858D01*
X163169*
X164843Y170531*
X161772Y162677D02*
Y179588D01*
X153071*
Y162677*
X161772*
X154402Y171024D02*
X160402D01*
X145039Y187520D02*
X128128D01*
Y178819*
X145039*
Y187520*
X136693Y180150D02*
Y186150D01*
X150774Y161919D02*
Y159335D01*
Y161919D02*
X151579D01*
X151848Y161796*
X151937Y161673*
X152027Y161427*
Y161181*
X151937Y160935*
X151848Y160812*
X151579Y160689*
X150774*
X151400D02*
X152027Y159335D01*
X152832Y161427D02*
X153011Y161550D01*
X153279Y161919*
Y159335*
X154174Y161304D02*
Y161427D01*
X154264Y161673*
X154353Y161796*
X154532Y161919*
X154890*
X155069Y161796*
X155158Y161673*
X155248Y161427*
Y161181*
X155158Y160935*
X154979Y160565*
X154085Y159335*
X155337*
G54D40*
X142126Y166850D02*
Y178268D01*
X147638*
Y166850*
X142126*
G74*
X0Y0D02*
M02*
